<svg width="120" height="90" viewBox="0 0 120 90" fill="none" xmlns="http://www.w3.org/2000/svg">
<path fill-rule="evenodd" clip-rule="evenodd" d="M6 0C2.68629 0 0 2.68629 0 6V84C0 87.3137 2.68629 90 6 90H114C117.314 90 120 87.3137 120 84V6C120 2.68629 117.314 0 114 0H6ZM6 3C4.34315 3 3 4.34315 3 6V64C3 65.6569 4.34315 67 6 67H114C115.657 67 117 65.6569 117 64V6C117 4.34315 115.657 3 114 3H6Z" fill="white"/>
<path d="M3 55H61C62.6569 55 64 56.3431 64 58V67H3V55Z" fill="white"/>
<path d="M85 3H117V14H88C86.3431 14 85 12.6569 85 11V3Z" fill="white"/>
<path d="M3.67044 54.5H3.50001L3.50001 54.3296C3.52761 54.3589 3.5556 54.3877 3.58395 54.4161C3.61231 54.4444 3.64114 54.4724 3.67044 54.5Z" stroke="white" stroke-linecap="square"/>
<path d="M64.6704 66.5H64.5L64.5 66.3296C64.5276 66.3589 64.5556 66.3877 64.584 66.4161C64.6123 66.4444 64.6411 66.4724 64.6704 66.5Z" stroke="white" stroke-linecap="square"/>
<path d="M116.33 14.5L116.5 14.5L116.5 14.6704C116.472 14.6411 116.444 14.6123 116.416 14.5839C116.388 14.5556 116.359 14.5276 116.33 14.5Z" stroke="white" stroke-linecap="square"/>
<path d="M84.3296 3.5L84.5 3.5L84.5 3.67043C84.4724 3.64113 84.4444 3.6123 84.416 3.58395C84.3877 3.55559 84.3589 3.5276 84.3296 3.5Z" stroke="white" stroke-linecap="square"/>
</svg>
