<svg width="481" height="84" viewBox="0 0 481 84" fill="none" xmlns="http://www.w3.org/2000/svg">
<path d="M16.5477 39.9492H47.1336V48.9141H19.7117V51.5508H41.3328V51.8145H42.9148V52.0781H43.7059V52.3418H44.2332V52.6055H44.7605V52.8691H45.2879V53.1328H45.5516V53.3965H46.0789V53.6602H46.3426V53.9238H46.6062V54.4512H46.8699V54.7148H47.1336V55.2422H47.3973V56.0332H47.6609V57.0879H47.9246V64.4707H47.6609V66.3164H47.3973V67.1074H47.1336V67.6348H46.8699V68.1621H46.6062V68.4258H46.3426V68.6895H46.0789V68.9531H45.8152V69.2168H45.5516V69.4805H45.2879V69.7441H44.7605V70.0078H44.2332V70.2715H43.4422V70.5352H42.3875V70.7988H5.73711V70.2715H6.00078V69.7441H6.26445V69.2168H6.52812V68.6895H6.79179V68.1621H7.05547V67.6348H7.31914V67.3711H7.58281V66.8438H7.84648V66.3164H8.11015V65.7891H8.37383V65.2617H8.6375V64.7344H8.90117V64.207H9.16484V63.6797H9.42851V63.1523H9.69218V62.625H9.95586V62.3613H10.2195V62.0977H36.8504V59.4609H14.9656V59.1973H13.3836V58.9336H12.5926V58.6699H12.0652V58.4062H11.5379V58.1426H11.0105V57.8789H10.7469V57.6152H10.4832V57.3516H10.2195V57.0879H9.95586V56.5605H9.69218V56.2969H9.42851V55.5059H9.16484V54.7148H8.90117V45.75H9.16484V44.4316H9.42851V43.9043H9.69218V43.377H9.95586V42.8496H10.2195V42.5859H10.4832V42.3223H10.7469V42.0586H11.0105V41.7949H11.2742V41.5312H11.8016V41.2676H12.0652V41.0039H12.5926V40.7402H13.3836V40.4766H14.4383V40.2129H16.5477V39.9492ZM55.4002 39.9141H66.2108V58.8984H83.8768V39.9141H94.6873V63.1172H94.4237V64.1719H94.16V64.9629H93.8963V65.4902H93.6327V65.7539H93.369V66.0176H93.1053V66.2812H92.8416V66.5449H92.578V66.8086H92.3143V67.0723H92.0506V67.3359H91.5233V67.5996H90.9959V67.8633H90.2049V68.127H88.8866V68.3906H61.4647V68.127H60.1463V67.8633H59.3553V67.5996H58.5643V67.3359H58.0369V67.0723H57.7733V66.8086H57.5096V66.5449H57.2459V66.2812H56.9823V66.0176H56.7186V65.7539H56.4549V65.4902H56.1912V64.9629H55.9276V64.4355H55.6639V63.6445H55.4002V39.9141ZM103.306 39.9316H115.434V40.1953H117.807V40.459H118.862V40.7227H119.39V40.9863H119.917V41.25H120.444V41.5137H120.708V41.7773H121.235V42.041H121.499V42.3047H121.763V42.832H122.026V43.0957H122.29V43.3594H122.554V43.8867H122.817V44.4141H123.081V44.9414H123.345V45.4688H123.608V45.9961H123.872V46.5234H124.136V47.0508H124.399V47.5781H124.663V48.3691H124.927V48.8965H125.19V49.4238H125.454V49.9512H125.718V50.4785H125.981V51.0059H126.245V51.5332H126.509V52.0605H126.772V52.5879H127.036V53.1152H127.3V53.6426H127.563V54.1699H127.827V54.6973H128.091V55.2246H128.354V55.752H128.618V56.2793H128.882V57.0703H129.145V57.5977H129.409V58.125H129.673V58.6523H129.936V59.1797H130.2V59.707H130.464V60.2344H130.727V60.7617H130.991V61.0254H131.255V39.9316H141.802V70.7812H128.882V70.5176H126.772V70.2539H125.981V69.9902H125.454V69.7266H124.927V69.4629H124.399V69.1992H124.136V68.9355H123.872V68.6719H123.608V68.4082H123.345V68.1445H123.081V67.8809H122.817V67.3535H122.554V66.8262H122.29V66.2988H122.026V65.7715H121.763V65.2441H121.499V64.7168H121.235V64.1895H120.972V63.6621H120.708V63.1348H120.444V62.6074H120.181V62.0801H119.917V61.2891H119.653V60.7617H119.39V60.2344H119.126V59.707H118.862V59.1797H118.599V58.6523H118.335V58.125H118.071V57.5977H117.807V57.0703H117.544V56.2793H117.28V55.752H117.016V55.2246H116.753V54.6973H116.489V54.1699H116.225V53.6426H115.962V53.1152H115.698V52.5879H115.434V52.0605H115.171V51.2695H114.907V50.7422H114.643V50.2148H114.38V49.6875H114.116V70.2539H113.589V70.5176H113.061V70.7812H112.534V71.0449H112.007V71.3086H111.216V71.5723H110.688V71.8359H110.161V72.0996H109.634V72.3633H109.106V72.627H108.315V72.8906H107.788V73.1543H107.261V73.418H106.733V73.6816H105.942V73.9453H105.415V74.209H104.888V74.4727H104.36V74.7363H103.833V75H103.306V39.9316ZM150.332 39.9316H162.461V40.1953H164.834V40.459H165.889V40.7227H166.416V40.9863H166.943V41.25H167.471V41.5137H167.734V41.7773H168.262V42.041H168.525V42.3047H168.789V42.832H169.053V43.0957H169.316V43.3594H169.58V43.8867H169.844V44.4141H170.107V44.9414H170.371V45.4688H170.635V45.9961H170.898V46.5234H171.162V47.0508H171.426V47.5781H171.689V48.3691H171.953V48.8965H172.217V49.4238H172.48V49.9512H172.744V50.4785H173.008V51.0059H173.271V51.5332H173.535V52.0605H173.799V52.5879H174.062V53.1152H174.326V53.6426H174.59V54.1699H174.853V54.6973H175.117V55.2246H175.381V55.752H175.644V56.2793H175.908V57.0703H176.172V57.5977H176.435V58.125H176.699V58.6523H176.963V59.1797H177.226V59.707H177.49V60.2344H177.754V60.7617H178.018V61.0254H178.281V39.9316H188.828V70.7812H175.908V70.5176H173.799V70.2539H173.008V69.9902H172.48V69.7266H171.953V69.4629H171.426V69.1992H171.162V68.9355H170.898V68.6719H170.635V68.4082H170.371V68.1445H170.107V67.8809H169.844V67.3535H169.58V66.8262H169.316V66.2988H169.053V65.7715H168.789V65.2441H168.525V64.7168H168.262V64.1895H167.998V63.6621H167.734V63.1348H167.471V62.6074H167.207V62.0801H166.943V61.2891H166.68V60.7617H166.416V60.2344H166.152V59.707H165.889V59.1797H165.625V58.6523H165.361V58.125H165.098V57.5977H164.834V57.0703H164.57V56.2793H164.307V55.752H164.043V55.2246H163.779V54.6973H163.516V54.1699H163.252V53.6426H162.988V53.1152H162.725V52.5879H162.461V52.0605H162.197V51.2695H161.934V50.7422H161.67V50.2148H161.406V49.6875H161.143V70.2539H160.615V70.5176H160.088V70.7812H159.56V71.0449H159.033V71.3086H158.242V71.5723H157.715V71.8359H157.187V72.0996H156.66V72.3633H156.133V72.627H155.342V72.8906H154.814V73.1543H154.287V73.418H153.76V73.6816H152.969V73.9453H152.441V74.209H151.914V74.4727H151.387V74.7363H150.859V75H150.332V39.9316ZM204.214 39.9492H231.899V48.9141H208.169V51.2871H231.899V59.1973H208.169V61.834H231.899V70.7988H207.114V70.5352H204.214V70.2715H202.895V70.0078H202.104V69.7441H201.313V69.4805H200.786V69.2168H200.259V68.9531H199.995V68.6895H199.731V68.4258H199.204V68.1621H198.94V67.8984H198.677V67.3711H198.413V67.1074H198.149V66.5801H197.886V66.3164H197.622V65.5254H197.358V44.959H197.622V44.168H197.886V43.6406H198.149V43.1133H198.413V42.8496H198.677V42.3223H198.94V42.0586H199.204V41.7949H199.731V41.5312H199.995V41.2676H200.522V41.0039H201.05V40.7402H201.577V40.4766H202.632V40.2129H204.214V39.9492ZM253.759 39.9316H264.833V52.3242H280.653V39.9316H291.728V70.7812H280.653V60.2344H264.833V70.2539H264.306V70.5176H263.778V70.7812H263.251V71.0449H262.46V71.3086H261.933V71.5723H261.405V71.8359H260.878V72.0996H260.087V72.3633H259.56V72.627H259.032V72.8906H258.241V73.1543H257.714V73.418H257.187V73.6816H256.659V73.9453H256.132V74.209H255.341V74.4727H254.814V74.7363H254.286V75H253.759V39.9316ZM308.344 39.9141H330.229V40.1777H331.811V40.4414H332.865V40.7051H333.656V40.9688H334.447V41.2324H334.975V41.4961H335.238V41.7598H335.766V42.0234H336.029V42.2871H336.293V42.5508H336.557V42.8145H336.82V43.0781H337.084V43.3418H337.348V43.8691H337.611V44.1328H337.875V44.6602H338.139V45.4512H338.402V46.5059H338.666V62.0625H338.402V63.1172H338.139V63.6445H337.875V64.1719H337.611V64.6992H337.348V64.9629H337.084V65.4902H336.82V65.7539H336.557V66.0176H336.293V66.2812H336.029V66.5449H335.502V66.8086H335.238V67.0723H334.711V67.3359H334.184V67.5996H333.656V67.8633H332.602V68.127H331.283V68.3906H308.08V68.127H306.234V67.8633H305.18V67.5996H304.389V67.3359H303.861V67.0723H303.334V66.8086H303.07V66.5449H302.543V66.2812H302.279V66.0176H302.016V65.7539H301.752V65.4902H301.488V64.9629H301.225V64.6992H300.961V64.1719H300.697V63.6445H300.434V62.8535H300.17V61.7988H299.906V46.7695H300.17V45.7148H300.434V44.9238H300.697V44.3965H300.961V43.8691H301.225V43.6055H301.488V43.0781H301.752V42.8145H302.016V42.5508H302.279V42.2871H302.543V42.0234H302.807V41.7598H303.334V41.4961H303.861V41.2324H304.125V40.9688H304.916V40.7051H305.707V40.4414H306.762V40.1777H308.344V39.9141ZM312.035 49.4062V49.6699H311.244V49.9336H310.981V50.1973H310.717V58.1074H310.981V58.6348H311.508V58.8984H327.328V58.6348H327.592V58.3711H327.856V50.1973H327.592V49.9336H327.328V49.6699H326.273V49.4062H312.035ZM346.933 39.9316H381.474V48.8965H369.609V71.0449H368.818V71.3086H368.29V71.5723H367.499V71.8359H366.972V72.0996H366.181V72.3633H365.39V72.627H364.862V72.8906H364.071V73.1543H363.28V73.418H362.753V73.6816H361.962V73.9453H361.435V74.209H360.644V74.4727H359.853V74.7363H359.325V75H358.534V48.8965H346.933V39.9316ZM397.299 39.9492H424.985V48.9141H401.254V51.2871H424.985V59.1973H401.254V61.834H424.985V70.7988H400.199V70.5352H397.299V70.2715H395.981V70.0078H395.19V69.7441H394.399V69.4805H393.871V69.2168H393.344V68.9531H393.08V68.6895H392.817V68.4258H392.289V68.1621H392.026V67.8984H391.762V67.3711H391.498V67.1074H391.235V66.5801H390.971V66.3164H390.707V65.5254H390.444V44.959H390.707V44.168H390.971V43.6406H391.235V43.1133H391.498V42.8496H391.762V42.3223H392.026V42.0586H392.289V41.7949H392.817V41.5312H393.08V41.2676H393.608V41.0039H394.135V40.7402H394.662V40.4766H395.717V40.2129H397.299V39.9492ZM433.954 39.9492H445.029V61.5703H470.605V70.7988H439.755V70.5352H438.437V70.2715H437.646V70.0078H437.118V69.7441H436.591V69.4805H436.327V69.2168H436.064V68.9531H435.8V68.6895H435.536V68.4258H435.273V68.1621H435.009V67.6348H434.745V67.3711H434.482V66.5801H434.218V65.5254H433.954V39.9492Z" fill="url(#paint0_radial_85_3)"/>
<mask id="path-2-outside-1_85_3" maskUnits="userSpaceOnUse" x="154" y="4" width="172" height="22" fill="black">
<rect fill="white" x="154" y="4" width="172" height="22"/>
<path d="M177.65 5.28L173.738 24H168.938L167.162 14.616C166.85 13.152 166.658 10.008 166.634 9.552H166.586C166.562 10.032 166.37 13.128 166.058 14.616L164.354 24H159.386L155.378 5.28H159.722L161.522 15C161.762 16.248 161.93 18.216 161.93 19.536H162.026C162.098 18.264 162.242 16.272 162.458 15.072L164.354 5.28H168.866L170.906 14.976C171.098 15.936 171.266 17.904 171.362 19.416H171.458C171.506 17.904 171.698 16.056 171.842 15.048L173.498 5.28H177.65ZM194.946 17.136C194.946 17.304 194.922 17.496 194.922 17.664L185.61 18.816C185.898 20.184 187.242 21 188.898 21C190.458 21 191.922 20.352 192.786 19.104L194.802 21.552C193.242 23.424 191.586 24.312 188.586 24.312C184.482 24.312 181.77 21.576 181.77 17.304C181.77 13.464 184.146 10.32 188.49 10.32C192.45 10.32 194.946 13.008 194.946 17.136ZM191.01 15.408C190.842 14.328 189.882 13.584 188.466 13.584C186.834 13.584 185.73 14.544 185.562 16.104L191.01 15.408ZM204.451 24H200.155V5.28H204.451V24ZM222.266 22.368C220.946 23.664 219.458 24.312 216.89 24.312C213.074 24.312 209.714 21.912 209.714 17.304C209.714 13.032 212.666 10.32 216.89 10.32C219.242 10.32 220.73 10.896 222.026 11.904L220.706 15.144C219.914 14.16 218.714 13.704 217.49 13.704C215.786 13.704 213.962 14.856 213.962 17.304C213.962 19.8 215.69 20.976 217.586 20.976C218.786 20.976 220.202 20.376 220.946 19.368L222.266 22.368ZM240.386 17.328C240.386 21.552 237.746 24.312 233.378 24.312C229.01 24.312 226.322 21.552 226.322 17.328C226.322 13.08 229.01 10.32 233.378 10.32C237.746 10.32 240.386 13.08 240.386 17.328ZM236.114 17.328C236.114 15.072 235.082 13.68 233.378 13.68C231.674 13.68 230.594 15.072 230.594 17.328C230.594 19.584 231.674 21 233.378 21C235.082 21 236.114 19.608 236.114 17.328ZM264.725 24H260.525V15.792C260.525 14.4 260.069 13.752 258.989 13.752C257.861 13.752 257.285 14.616 257.213 15.648V24H253.037V15.792C253.037 14.424 252.629 13.752 251.549 13.752C250.565 13.752 250.061 14.472 249.773 15.456V24H245.573V10.632H249.389V12.12C249.965 11.04 251.165 10.32 253.181 10.32C254.837 10.32 256.109 11.16 256.637 12.312C257.213 11.04 258.773 10.32 260.693 10.32C263.045 10.32 264.725 12.168 264.725 14.76V24ZM283.075 17.136C283.075 17.304 283.051 17.496 283.051 17.664L273.739 18.816C274.027 20.184 275.371 21 277.027 21C278.587 21 280.051 20.352 280.915 19.104L282.931 21.552C281.371 23.424 279.715 24.312 276.715 24.312C272.611 24.312 269.899 21.576 269.899 17.304C269.899 13.464 272.275 10.32 276.619 10.32C280.579 10.32 283.075 13.008 283.075 17.136ZM279.139 15.408C278.971 14.328 278.011 13.584 276.595 13.584C274.963 13.584 273.859 14.544 273.691 16.104L279.139 15.408ZM307.214 20.856L306.47 24.312C301.742 24.312 300.038 23.352 300.038 19.968V13.872H298.118V10.632H300.23V6.456H304.238V10.632H306.494V13.872H304.238V19.056C304.238 20.808 304.526 20.856 307.214 20.856ZM325.211 17.328C325.211 21.552 322.571 24.312 318.203 24.312C313.835 24.312 311.147 21.552 311.147 17.328C311.147 13.08 313.835 10.32 318.203 10.32C322.571 10.32 325.211 13.08 325.211 17.328ZM320.939 17.328C320.939 15.072 319.907 13.68 318.203 13.68C316.499 13.68 315.419 15.072 315.419 17.328C315.419 19.584 316.499 21 318.203 21C319.907 21 320.939 19.608 320.939 17.328Z"/>
</mask>
<path d="M177.65 5.28L173.738 24H168.938L167.162 14.616C166.85 13.152 166.658 10.008 166.634 9.552H166.586C166.562 10.032 166.37 13.128 166.058 14.616L164.354 24H159.386L155.378 5.28H159.722L161.522 15C161.762 16.248 161.93 18.216 161.93 19.536H162.026C162.098 18.264 162.242 16.272 162.458 15.072L164.354 5.28H168.866L170.906 14.976C171.098 15.936 171.266 17.904 171.362 19.416H171.458C171.506 17.904 171.698 16.056 171.842 15.048L173.498 5.28H177.65ZM194.946 17.136C194.946 17.304 194.922 17.496 194.922 17.664L185.61 18.816C185.898 20.184 187.242 21 188.898 21C190.458 21 191.922 20.352 192.786 19.104L194.802 21.552C193.242 23.424 191.586 24.312 188.586 24.312C184.482 24.312 181.77 21.576 181.77 17.304C181.77 13.464 184.146 10.32 188.49 10.32C192.45 10.32 194.946 13.008 194.946 17.136ZM191.01 15.408C190.842 14.328 189.882 13.584 188.466 13.584C186.834 13.584 185.73 14.544 185.562 16.104L191.01 15.408ZM204.451 24H200.155V5.28H204.451V24ZM222.266 22.368C220.946 23.664 219.458 24.312 216.89 24.312C213.074 24.312 209.714 21.912 209.714 17.304C209.714 13.032 212.666 10.32 216.89 10.32C219.242 10.32 220.73 10.896 222.026 11.904L220.706 15.144C219.914 14.16 218.714 13.704 217.49 13.704C215.786 13.704 213.962 14.856 213.962 17.304C213.962 19.8 215.69 20.976 217.586 20.976C218.786 20.976 220.202 20.376 220.946 19.368L222.266 22.368ZM240.386 17.328C240.386 21.552 237.746 24.312 233.378 24.312C229.01 24.312 226.322 21.552 226.322 17.328C226.322 13.08 229.01 10.32 233.378 10.32C237.746 10.32 240.386 13.08 240.386 17.328ZM236.114 17.328C236.114 15.072 235.082 13.68 233.378 13.68C231.674 13.68 230.594 15.072 230.594 17.328C230.594 19.584 231.674 21 233.378 21C235.082 21 236.114 19.608 236.114 17.328ZM264.725 24H260.525V15.792C260.525 14.4 260.069 13.752 258.989 13.752C257.861 13.752 257.285 14.616 257.213 15.648V24H253.037V15.792C253.037 14.424 252.629 13.752 251.549 13.752C250.565 13.752 250.061 14.472 249.773 15.456V24H245.573V10.632H249.389V12.12C249.965 11.04 251.165 10.32 253.181 10.32C254.837 10.32 256.109 11.16 256.637 12.312C257.213 11.04 258.773 10.32 260.693 10.32C263.045 10.32 264.725 12.168 264.725 14.76V24ZM283.075 17.136C283.075 17.304 283.051 17.496 283.051 17.664L273.739 18.816C274.027 20.184 275.371 21 277.027 21C278.587 21 280.051 20.352 280.915 19.104L282.931 21.552C281.371 23.424 279.715 24.312 276.715 24.312C272.611 24.312 269.899 21.576 269.899 17.304C269.899 13.464 272.275 10.32 276.619 10.32C280.579 10.32 283.075 13.008 283.075 17.136ZM279.139 15.408C278.971 14.328 278.011 13.584 276.595 13.584C274.963 13.584 273.859 14.544 273.691 16.104L279.139 15.408ZM307.214 20.856L306.47 24.312C301.742 24.312 300.038 23.352 300.038 19.968V13.872H298.118V10.632H300.23V6.456H304.238V10.632H306.494V13.872H304.238V19.056C304.238 20.808 304.526 20.856 307.214 20.856ZM325.211 17.328C325.211 21.552 322.571 24.312 318.203 24.312C313.835 24.312 311.147 21.552 311.147 17.328C311.147 13.08 313.835 10.32 318.203 10.32C322.571 10.32 325.211 13.08 325.211 17.328ZM320.939 17.328C320.939 15.072 319.907 13.68 318.203 13.68C316.499 13.68 315.419 15.072 315.419 17.328C315.419 19.584 316.499 21 318.203 21C319.907 21 320.939 19.608 320.939 17.328Z" fill="url(#paint1_linear_85_3)"/>
<path d="M177.65 5.28L178.335 5.42319C178.378 5.21687 178.326 5.00211 178.193 4.83854C178.06 4.67497 177.861 4.58 177.65 4.58V5.28ZM173.738 24V24.7C174.069 24.7 174.355 24.4676 174.423 24.1432L173.738 24ZM168.938 24L168.25 24.1302C168.313 24.4607 168.602 24.7 168.938 24.7V24ZM167.162 14.616L167.85 14.4858C167.849 14.4806 167.848 14.4753 167.847 14.4701L167.162 14.616ZM166.634 9.552L167.333 9.51521C167.313 9.14342 167.006 8.852 166.634 8.852V9.552ZM166.586 9.552V8.852C166.213 8.852 165.905 9.1445 165.887 9.51704L166.586 9.552ZM166.058 14.616L165.373 14.4723C165.372 14.4785 165.37 14.4847 165.369 14.4909L166.058 14.616ZM164.354 24V24.7C164.692 24.7 164.982 24.458 165.043 24.1251L164.354 24ZM159.386 24L158.701 24.1466C158.771 24.4694 159.056 24.7 159.386 24.7V24ZM155.378 5.28V4.58C155.167 4.58 154.966 4.67551 154.834 4.83988C154.701 5.00424 154.649 5.21986 154.693 5.42655L155.378 5.28ZM159.722 5.28L160.41 5.15254C160.349 4.82074 160.059 4.58 159.722 4.58V5.28ZM161.522 15L160.834 15.1275L160.835 15.1322L161.522 15ZM161.93 19.536H161.23C161.23 19.9226 161.543 20.236 161.93 20.236V19.536ZM162.026 19.536V20.236C162.397 20.236 162.704 19.9462 162.725 19.5756L162.026 19.536ZM162.458 15.072L161.771 14.9389L161.769 14.948L162.458 15.072ZM164.354 5.28V4.58C164.019 4.58 163.73 4.81775 163.667 5.14693L164.354 5.28ZM168.866 5.28L169.551 5.13588C169.483 4.81192 169.197 4.58 168.866 4.58V5.28ZM170.906 14.976L171.592 14.8387L171.591 14.8319L170.906 14.976ZM171.362 19.416L170.663 19.4604C170.687 19.829 170.993 20.116 171.362 20.116V19.416ZM171.458 19.416V20.116C171.836 20.116 172.146 19.816 172.158 19.4382L171.458 19.416ZM171.842 15.048L171.152 14.931C171.151 14.937 171.15 14.943 171.149 14.949L171.842 15.048ZM173.498 5.28V4.58C173.156 4.58 172.865 4.82635 172.808 5.163L173.498 5.28ZM176.965 5.13681L173.053 23.8568L174.423 24.1432L178.335 5.42319L176.965 5.13681ZM173.738 23.3H168.938V24.7H173.738V23.3ZM169.626 23.8698L167.85 14.4858L166.474 14.7462L168.25 24.1302L169.626 23.8698ZM167.847 14.4701C167.548 13.071 167.358 9.9868 167.333 9.51521L165.935 9.58879C165.958 10.0292 166.151 13.233 166.477 14.7619L167.847 14.4701ZM166.634 8.852H166.586V10.252H166.634V8.852ZM165.887 9.51704C165.862 10.0079 165.672 13.0476 165.373 14.4723L166.743 14.7596C167.068 13.2084 167.262 10.0561 167.285 9.58696L165.887 9.51704ZM165.369 14.4909L163.665 23.8749L165.043 24.1251L166.747 14.7411L165.369 14.4909ZM164.354 23.3H159.386V24.7H164.354V23.3ZM160.07 23.8534L156.062 5.13345L154.693 5.42655L158.701 24.1466L160.07 23.8534ZM155.378 5.98H159.722V4.58H155.378V5.98ZM159.034 5.40746L160.834 15.1275L162.21 14.8725L160.41 5.15254L159.034 5.40746ZM160.835 15.1322C161.065 16.3307 161.23 18.2539 161.23 19.536H162.63C162.63 18.1781 162.459 16.1653 162.209 14.8678L160.835 15.1322ZM161.93 20.236H162.026V18.836H161.93V20.236ZM162.725 19.5756C162.797 18.2993 162.939 16.3481 163.147 15.196L161.769 14.948C161.544 16.1959 161.399 18.2287 161.327 19.4964L162.725 19.5756ZM163.145 15.2051L165.041 5.41307L163.667 5.14693L161.771 14.9389L163.145 15.2051ZM164.354 5.98H168.866V4.58H164.354V5.98ZM168.181 5.42412L170.221 15.1201L171.591 14.8319L169.551 5.13588L168.181 5.42412ZM170.22 15.1133C170.401 16.0196 170.567 17.9407 170.663 19.4604L172.061 19.3716C171.965 17.8673 171.795 15.8524 171.592 14.8387L170.22 15.1133ZM171.362 20.116H171.458V18.716H171.362V20.116ZM172.158 19.4382C172.205 17.9569 172.394 16.135 172.535 15.147L171.149 14.949C171.002 15.977 170.807 17.8511 170.758 19.3938L172.158 19.4382ZM172.532 15.165L174.188 5.397L172.808 5.163L171.152 14.931L172.532 15.165ZM173.498 5.98H177.65V4.58H173.498V5.98ZM194.922 17.664L195.008 18.3587C195.358 18.3153 195.622 18.0174 195.622 17.664H194.922ZM185.61 18.816L185.524 18.1213C185.329 18.1453 185.154 18.2498 185.04 18.4092C184.926 18.5686 184.884 18.7685 184.925 18.9602L185.61 18.816ZM192.786 19.104L193.326 18.659C193.187 18.4896 192.976 18.3955 192.756 18.4046C192.537 18.4138 192.335 18.5252 192.21 18.7056L192.786 19.104ZM194.802 21.552L195.339 22.0001C195.555 21.7417 195.556 21.3667 195.342 21.107L194.802 21.552ZM191.01 15.408L191.098 16.1024C191.286 16.0784 191.456 15.9797 191.569 15.8287C191.683 15.6776 191.73 15.4871 191.701 15.3004L191.01 15.408ZM185.562 16.104L184.866 16.029C184.843 16.2421 184.919 16.4539 185.072 16.6038C185.225 16.7538 185.438 16.8255 185.65 16.7984L185.562 16.104ZM194.246 17.136C194.246 17.1924 194.242 17.2583 194.235 17.3534C194.23 17.4383 194.222 17.5524 194.222 17.664H195.622C195.622 17.6076 195.626 17.5417 195.632 17.4466C195.638 17.3617 195.646 17.2476 195.646 17.136H194.246ZM194.836 16.9693L185.524 18.1213L185.696 19.5107L195.008 18.3587L194.836 16.9693ZM184.925 18.9602C185.306 20.7694 187.047 21.7 188.898 21.7V20.3C187.436 20.3 186.49 19.5986 186.295 18.6718L184.925 18.9602ZM188.898 21.7C190.645 21.7 192.344 20.9717 193.361 19.5024L192.21 18.7056C191.499 19.7323 190.27 20.3 188.898 20.3V21.7ZM192.245 19.549L194.261 21.997L195.342 21.107L193.326 18.659L192.245 19.549ZM194.264 21.1039C193.528 21.9864 192.803 22.5987 191.939 22.9989C191.073 23.4002 190.017 23.612 188.586 23.612V25.012C190.154 25.012 191.426 24.7798 192.528 24.2691C193.633 23.7573 194.515 22.9896 195.339 22.0001L194.264 21.1039ZM188.586 23.612C186.693 23.612 185.18 22.9847 184.139 21.9206C183.097 20.8552 182.47 19.29 182.47 17.304H181.07C181.07 19.59 181.798 21.5288 183.138 22.8994C184.48 24.2713 186.374 25.012 188.586 25.012V23.612ZM182.47 17.304C182.47 15.5246 183.02 13.9552 184.021 12.8397C185.014 11.7344 186.498 11.02 188.49 11.02V9.62C186.137 9.62 184.261 10.4776 182.98 11.9043C181.708 13.3208 181.07 15.2434 181.07 17.304H182.47ZM188.49 11.02C190.305 11.02 191.725 11.6317 192.693 12.66C193.666 13.6928 194.246 15.2123 194.246 17.136H195.646C195.646 14.9317 194.977 13.0432 193.712 11.7C192.443 10.3523 190.634 9.62 188.49 9.62V11.02ZM191.701 15.3004C191.467 13.7916 190.13 12.884 188.466 12.884V14.284C189.634 14.284 190.217 14.8644 190.318 15.5156L191.701 15.3004ZM188.466 12.884C187.511 12.884 186.655 13.1666 186.006 13.7304C185.354 14.2961 184.966 15.0972 184.866 16.029L186.258 16.179C186.325 15.5508 186.573 15.0919 186.924 14.7876C187.276 14.4814 187.788 14.284 188.466 14.284V12.884ZM185.65 16.7984L191.098 16.1024L190.921 14.7136L185.473 15.4096L185.65 16.7984ZM204.451 24V24.7C204.837 24.7 205.151 24.3866 205.151 24H204.451ZM200.155 24H199.455C199.455 24.3866 199.768 24.7 200.155 24.7V24ZM200.155 5.28V4.58C199.768 4.58 199.455 4.8934 199.455 5.28H200.155ZM204.451 5.28H205.151C205.151 4.8934 204.837 4.58 204.451 4.58V5.28ZM204.451 23.3H200.155V24.7H204.451V23.3ZM200.855 24V5.28H199.455V24H200.855ZM200.155 5.98H204.451V4.58H200.155V5.98ZM203.751 5.28V24H205.151V5.28H203.751ZM222.266 22.368L222.756 22.8675C222.964 22.6636 223.024 22.3525 222.906 22.0861L222.266 22.368ZM222.026 11.904L222.674 12.1681C222.792 11.8777 222.703 11.544 222.455 11.3515L222.026 11.904ZM220.706 15.144L220.16 15.5829C220.316 15.776 220.562 15.8725 220.807 15.8366C221.052 15.8007 221.26 15.6377 221.354 15.4081L220.706 15.144ZM220.946 19.368L221.586 19.0861C221.486 18.8575 221.271 18.6999 221.023 18.6723C220.775 18.6447 220.531 18.7514 220.383 18.9523L220.946 19.368ZM221.775 21.8685C221.172 22.4612 220.55 22.8874 219.798 23.1711C219.041 23.4571 218.116 23.612 216.89 23.612V25.012C218.231 25.012 219.334 24.8429 220.293 24.4809C221.258 24.1166 222.04 23.5708 222.756 22.8675L221.775 21.8685ZM216.89 23.612C215.124 23.612 213.505 23.0568 212.337 22.0139C211.18 20.9811 210.414 19.4248 210.414 17.304H209.014C209.014 19.7912 209.927 21.7389 211.404 23.0581C212.87 24.3672 214.84 25.012 216.89 25.012V23.612ZM210.414 17.304C210.414 15.3357 211.09 13.7803 212.202 12.7156C213.317 11.6476 214.928 11.02 216.89 11.02V9.62C214.627 9.62 212.65 10.3484 211.234 11.7044C209.814 13.0637 209.014 15.0003 209.014 17.304H210.414ZM216.89 11.02C219.102 11.02 220.434 11.5532 221.596 12.4565L222.455 11.3515C221.025 10.2388 219.382 9.62 216.89 9.62V11.02ZM221.377 11.6399L220.057 14.8799L221.354 15.4081L222.674 12.1681L221.377 11.6399ZM221.251 14.7051C220.301 13.5244 218.881 13.004 217.49 13.004V14.404C218.546 14.404 219.527 14.7956 220.16 15.5829L221.251 14.7051ZM217.49 13.004C216.488 13.004 215.434 13.3414 214.622 14.0626C213.795 14.7964 213.262 15.8907 213.262 17.304H214.662C214.662 16.2693 215.04 15.5636 215.551 15.1094C216.077 14.6426 216.788 14.404 217.49 14.404V13.004ZM213.262 17.304C213.262 18.7249 213.76 19.8403 214.593 20.5948C215.414 21.3386 216.498 21.676 217.586 21.676V20.276C216.777 20.276 216.05 20.0254 215.533 19.5572C215.028 19.0997 214.662 18.3791 214.662 17.304H213.262ZM217.586 21.676C218.971 21.676 220.612 20.9985 221.509 19.7837L220.383 18.9523C219.791 19.7535 218.601 20.276 217.586 20.276V21.676ZM220.305 19.6499L221.625 22.6499L222.906 22.0861L221.586 19.0861L220.305 19.6499ZM239.686 17.328C239.686 19.293 239.075 20.849 238.023 21.9115C236.972 22.9728 235.412 23.612 233.378 23.612V25.012C235.713 25.012 237.657 24.2712 239.018 22.8965C240.378 21.523 241.086 19.587 241.086 17.328H239.686ZM233.378 23.612C231.344 23.612 229.771 22.9724 228.707 21.909C227.644 20.8452 227.022 19.2895 227.022 17.328H225.622C225.622 19.5905 226.345 21.5268 227.717 22.899C229.09 24.2716 231.045 25.012 233.378 25.012V23.612ZM227.022 17.328C227.022 15.3535 227.644 13.7917 228.708 12.7254C229.771 11.6595 231.344 11.02 233.378 11.02V9.62C231.045 9.62 229.09 10.3605 227.717 11.7366C226.345 13.1123 225.622 15.0545 225.622 17.328H227.022ZM233.378 11.02C235.412 11.02 236.972 11.6592 238.022 12.7229C239.074 13.788 239.686 15.3499 239.686 17.328H241.086C241.086 15.0581 240.378 13.116 239.018 11.7391C237.657 10.3608 235.713 9.62 233.378 9.62V11.02ZM236.814 17.328C236.814 16.1042 236.536 15.0277 235.946 14.2389C235.339 13.4266 234.444 12.98 233.378 12.98V14.38C234.017 14.38 234.49 14.6294 234.825 15.0771C235.177 15.5483 235.414 16.2958 235.414 17.328H236.814ZM233.378 12.98C232.315 12.98 231.411 13.4246 230.792 14.2321C230.188 15.0198 229.894 16.0976 229.894 17.328H231.294C231.294 16.3024 231.541 15.5562 231.903 15.0839C232.25 14.6314 232.738 14.38 233.378 14.38V12.98ZM229.894 17.328C229.894 18.5584 230.188 19.6407 230.79 20.4334C231.407 21.2459 232.31 21.7 233.378 21.7V20.3C232.742 20.3 232.254 20.0461 231.905 19.5866C231.541 19.1073 231.294 18.3536 231.294 17.328H229.894ZM233.378 21.7C234.445 21.7 235.34 21.2531 235.947 20.4369C236.536 19.6447 236.814 18.5624 236.814 17.328H235.414C235.414 18.3736 235.176 19.1273 234.824 19.6011C234.489 20.0509 234.016 20.3 233.378 20.3V21.7ZM264.725 24V24.7C265.112 24.7 265.425 24.3866 265.425 24H264.725ZM260.525 24H259.825C259.825 24.3866 260.138 24.7 260.525 24.7V24ZM257.213 15.648L256.515 15.5993C256.514 15.6155 256.513 15.6317 256.513 15.648H257.213ZM257.213 24V24.7C257.6 24.7 257.913 24.3866 257.913 24H257.213ZM253.037 24H252.337C252.337 24.3866 252.65 24.7 253.037 24.7V24ZM249.773 15.456L249.101 15.2594C249.083 15.3232 249.073 15.3895 249.073 15.456H249.773ZM249.773 24V24.7C250.16 24.7 250.473 24.3866 250.473 24H249.773ZM245.573 24H244.873C244.873 24.3866 245.186 24.7 245.573 24.7V24ZM245.573 10.632V9.932C245.186 9.932 244.873 10.2454 244.873 10.632H245.573ZM249.389 10.632H250.089C250.089 10.2454 249.776 9.932 249.389 9.932V10.632ZM249.389 12.12H248.689C248.689 12.4412 248.908 12.7212 249.219 12.7991C249.531 12.877 249.856 12.7328 250.007 12.4494L249.389 12.12ZM256.637 12.312L256.001 12.6037C256.115 12.853 256.364 13.0126 256.639 13.012C256.913 13.0114 257.162 12.8506 257.275 12.6008L256.637 12.312ZM264.725 23.3H260.525V24.7H264.725V23.3ZM261.225 24V15.792H259.825V24H261.225ZM261.225 15.792C261.225 15.0469 261.108 14.3514 260.724 13.8332C260.305 13.2676 259.678 13.052 258.989 13.052V14.452C259.38 14.452 259.521 14.5604 259.6 14.6668C259.714 14.8206 259.825 15.1451 259.825 15.792H261.225ZM258.989 13.052C258.226 13.052 257.603 13.3532 257.172 13.859C256.757 14.3465 256.558 14.9764 256.515 15.5993L257.911 15.6967C257.94 15.2876 258.065 14.9695 258.238 14.767C258.395 14.5828 258.624 14.452 258.989 14.452V13.052ZM256.513 15.648V24H257.913V15.648H256.513ZM257.213 23.3H253.037V24.7H257.213V23.3ZM253.737 24V15.792H252.337V24H253.737ZM253.737 15.792C253.737 15.0681 253.635 14.3777 253.272 13.8579C252.868 13.2808 252.248 13.052 251.549 13.052V14.452C251.93 14.452 252.054 14.5592 252.124 14.6601C252.235 14.8183 252.337 15.1478 252.337 15.792H253.737ZM251.549 13.052C250.861 13.052 250.305 13.314 249.89 13.7554C249.498 14.1729 249.26 14.7185 249.101 15.2594L250.445 15.6526C250.575 15.2095 250.733 14.9031 250.91 14.7146C251.065 14.55 251.253 14.452 251.549 14.452V13.052ZM249.073 15.456V24H250.473V15.456H249.073ZM249.773 23.3H245.573V24.7H249.773V23.3ZM246.273 24V10.632H244.873V24H246.273ZM245.573 11.332H249.389V9.932H245.573V11.332ZM248.689 10.632V12.12H250.089V10.632H248.689ZM250.007 12.4494C250.426 11.6632 251.339 11.02 253.181 11.02V9.62C250.991 9.62 249.504 10.4168 248.771 11.7906L250.007 12.4494ZM253.181 11.02C254.598 11.02 255.601 11.7308 256.001 12.6037L257.273 12.0203C256.617 10.5892 255.076 9.62 253.181 9.62V11.02ZM257.275 12.6008C257.687 11.6913 258.899 11.02 260.693 11.02V9.62C258.647 9.62 256.74 10.3887 255.999 12.0232L257.275 12.6008ZM260.693 11.02C262.597 11.02 264.025 12.4898 264.025 14.76H265.425C265.425 11.8462 263.493 9.62 260.693 9.62V11.02ZM264.025 14.76V24H265.425V14.76H264.025ZM283.051 17.664L283.137 18.3587C283.488 18.3153 283.751 18.0174 283.751 17.664H283.051ZM273.739 18.816L273.653 18.1213C273.459 18.1453 273.284 18.2498 273.17 18.4092C273.056 18.5686 273.014 18.7685 273.054 18.9602L273.739 18.816ZM280.915 19.104L281.456 18.659C281.316 18.4896 281.105 18.3955 280.886 18.4046C280.667 18.4138 280.465 18.5252 280.34 18.7056L280.915 19.104ZM282.931 21.552L283.469 22.0001C283.684 21.7417 283.686 21.3667 283.472 21.107L282.931 21.552ZM279.139 15.408L279.228 16.1024C279.415 16.0784 279.585 15.9797 279.699 15.8287C279.812 15.6776 279.86 15.4871 279.831 15.3004L279.139 15.408ZM273.691 16.104L272.995 16.029C272.972 16.2421 273.048 16.4539 273.201 16.6038C273.354 16.7538 273.568 16.8255 273.78 16.7984L273.691 16.104ZM282.375 17.136C282.375 17.1924 282.371 17.2583 282.365 17.3534C282.359 17.4383 282.351 17.5524 282.351 17.664H283.751C283.751 17.6076 283.755 17.5417 283.762 17.4466C283.767 17.3617 283.775 17.2476 283.775 17.136H282.375ZM282.965 16.9693L273.653 18.1213L273.825 19.5107L283.137 18.3587L282.965 16.9693ZM273.054 18.9602C273.435 20.7694 275.177 21.7 277.027 21.7V20.3C275.566 20.3 274.619 19.5986 274.424 18.6718L273.054 18.9602ZM277.027 21.7C278.775 21.7 280.474 20.9717 281.491 19.5024L280.34 18.7056C279.629 19.7323 278.4 20.3 277.027 20.3V21.7ZM280.375 19.549L282.391 21.997L283.472 21.107L281.456 18.659L280.375 19.549ZM282.394 21.1039C281.658 21.9864 280.932 22.5987 280.069 22.9989C279.203 23.4002 278.147 23.612 276.715 23.612V25.012C278.284 25.012 279.556 24.7798 280.658 24.2691C281.762 23.7573 282.645 22.9896 283.469 22.0001L282.394 21.1039ZM276.715 23.612C274.823 23.612 273.309 22.9847 272.269 21.9206C271.227 20.8552 270.599 19.29 270.599 17.304H269.199C269.199 19.59 269.928 21.5288 271.268 22.8994C272.609 24.2713 274.504 25.012 276.715 25.012V23.612ZM270.599 17.304C270.599 15.5246 271.149 13.9552 272.151 12.8397C273.144 11.7344 274.628 11.02 276.619 11.02V9.62C274.267 9.62 272.391 10.4776 271.11 11.9043C269.837 13.3208 269.199 15.2434 269.199 17.304H270.599ZM276.619 11.02C278.435 11.02 279.854 11.6317 280.823 12.66C281.796 13.6928 282.375 15.2123 282.375 17.136H283.775C283.775 14.9317 283.107 13.0432 281.842 11.7C280.572 10.3523 278.764 9.62 276.619 9.62V11.02ZM279.831 15.3004C279.596 13.7916 278.259 12.884 276.595 12.884V14.284C277.763 14.284 278.346 14.8644 278.448 15.5156L279.831 15.3004ZM276.595 12.884C275.641 12.884 274.785 13.1666 274.135 13.7304C273.484 14.2961 273.096 15.0972 272.995 16.029L274.387 16.179C274.455 15.5508 274.703 15.0919 275.053 14.7876C275.406 14.4814 275.918 14.284 276.595 14.284V12.884ZM273.78 16.7984L279.228 16.1024L279.051 14.7136L273.603 15.4096L273.78 16.7984ZM307.214 20.856L307.898 21.0033C307.943 20.7965 307.891 20.5807 307.758 20.4162C307.626 20.2516 307.425 20.156 307.214 20.156V20.856ZM306.47 24.312V25.012C306.8 25.012 307.085 24.7818 307.154 24.4593L306.47 24.312ZM300.038 13.872H300.738C300.738 13.4854 300.424 13.172 300.038 13.172V13.872ZM298.118 13.872H297.418C297.418 14.2586 297.731 14.572 298.118 14.572V13.872ZM298.118 10.632V9.932C297.731 9.932 297.418 10.2454 297.418 10.632H298.118ZM300.23 10.632V11.332C300.616 11.332 300.93 11.0186 300.93 10.632H300.23ZM300.23 6.456V5.756C299.843 5.756 299.53 6.0694 299.53 6.456H300.23ZM304.238 6.456H304.938C304.938 6.0694 304.624 5.756 304.238 5.756V6.456ZM304.238 10.632H303.538C303.538 11.0186 303.851 11.332 304.238 11.332V10.632ZM306.494 10.632H307.194C307.194 10.2454 306.88 9.932 306.494 9.932V10.632ZM306.494 13.872V14.572C306.88 14.572 307.194 14.2586 307.194 13.872H306.494ZM304.238 13.872V13.172C303.851 13.172 303.538 13.4854 303.538 13.872H304.238ZM306.53 20.7087L305.786 24.1647L307.154 24.4593L307.898 21.0033L306.53 20.7087ZM306.47 23.612C304.105 23.612 302.69 23.3615 301.863 22.8226C301.129 22.3437 300.738 21.5454 300.738 19.968H299.338C299.338 21.7746 299.799 23.1483 301.099 23.9954C302.306 24.7825 304.107 25.012 306.47 25.012V23.612ZM300.738 19.968V13.872H299.338V19.968H300.738ZM300.038 13.172H298.118V14.572H300.038V13.172ZM298.818 13.872V10.632H297.418V13.872H298.818ZM298.118 11.332H300.23V9.932H298.118V11.332ZM300.93 10.632V6.456H299.53V10.632H300.93ZM300.23 7.156H304.238V5.756H300.23V7.156ZM303.538 6.456V10.632H304.938V6.456H303.538ZM304.238 11.332H306.494V9.932H304.238V11.332ZM305.794 10.632V13.872H307.194V10.632H305.794ZM306.494 13.172H304.238V14.572H306.494V13.172ZM303.538 13.872V19.056H304.938V13.872H303.538ZM303.538 19.056C303.538 19.4922 303.553 19.91 303.65 20.262C303.759 20.6576 303.978 20.9986 304.373 21.2221C304.717 21.417 305.135 21.4855 305.56 21.519C305.998 21.5534 306.549 21.556 307.214 21.556V20.156C306.535 20.156 306.042 20.1526 305.67 20.1233C305.285 20.093 305.127 20.04 305.063 20.0039C305.05 19.9964 305.029 19.9969 305 19.8907C304.959 19.741 304.938 19.4958 304.938 19.056H303.538ZM324.511 17.328C324.511 19.293 323.9 20.849 322.848 21.9115C321.797 22.9728 320.237 23.612 318.203 23.612V25.012C320.538 25.012 322.482 24.2712 323.843 22.8965C325.203 21.523 325.911 19.587 325.911 17.328H324.511ZM318.203 23.612C316.169 23.612 314.596 22.9724 313.532 21.909C312.469 20.8452 311.847 19.2895 311.847 17.328H310.447C310.447 19.5905 311.17 21.5268 312.542 22.899C313.915 24.2716 315.87 25.012 318.203 25.012V23.612ZM311.847 17.328C311.847 15.3535 312.469 13.7917 313.533 12.7254C314.596 11.6595 316.169 11.02 318.203 11.02V9.62C315.87 9.62 313.915 10.3605 312.542 11.7366C311.17 13.1123 310.447 15.0545 310.447 17.328H311.847ZM318.203 11.02C320.237 11.02 321.797 11.6592 322.847 12.7229C323.899 13.788 324.511 15.3499 324.511 17.328H325.911C325.911 15.0581 325.203 13.116 323.843 11.7391C322.482 10.3608 320.538 9.62 318.203 9.62V11.02ZM321.639 17.328C321.639 16.1042 321.361 15.0277 320.771 14.2389C320.164 13.4266 319.269 12.98 318.203 12.98V14.38C318.842 14.38 319.315 14.6294 319.65 15.0771C320.002 15.5483 320.239 16.2958 320.239 17.328H321.639ZM318.203 12.98C317.14 12.98 316.236 13.4246 315.617 14.2321C315.013 15.0198 314.719 16.0976 314.719 17.328H316.119C316.119 16.3024 316.366 15.5562 316.728 15.0839C317.075 14.6314 317.563 14.38 318.203 14.38V12.98ZM314.719 17.328C314.719 18.5584 315.013 19.6407 315.615 20.4334C316.232 21.2459 317.135 21.7 318.203 21.7V20.3C317.567 20.3 317.079 20.0461 316.73 19.5866C316.366 19.1073 316.119 18.3536 316.119 17.328H314.719ZM318.203 21.7C319.27 21.7 320.165 21.2531 320.772 20.4369C321.361 19.6447 321.639 18.5624 321.639 17.328H320.239C320.239 18.3736 320.001 19.1273 319.649 19.6011C319.314 20.0509 318.841 20.3 318.203 20.3V21.7Z" fill="#B3B3B3" mask="url(#path-2-outside-1_85_3)"/>
<defs>
<radialGradient id="paint0_radial_85_3" cx="0" cy="0" r="1" gradientUnits="userSpaceOnUse" gradientTransform="translate(241 73.5) rotate(90) scale(43 1019.47)">
<stop stop-color="#FFE660"/>
<stop offset="0.9375" stop-color="#FF9211"/>
</radialGradient>
<linearGradient id="paint1_linear_85_3" x1="240.5" y1="-9.18908e-08" x2="240.5" y2="35.5" gradientUnits="userSpaceOnUse">
<stop stop-color="#D9D9D9"/>
<stop offset="1" stop-color="#8D8D8D"/>
</linearGradient>
</defs>
</svg>
