<svg width="532" height="157" viewBox="0 0 532 157" fill="none" xmlns="http://www.w3.org/2000/svg">
<g filter="url(#filter0_d_85_3)">
<ellipse cx="266" cy="71" rx="206" ry="26" fill="white"/>
</g>
<path d="M41.5477 66.9492H72.1336V75.9141H44.7117V78.5508H66.3328V78.8145H67.9148V79.0781H68.7059V79.3418H69.2332V79.6055H69.7605V79.8691H70.2879V80.1328H70.5516V80.3965H71.0789V80.6602H71.3426V80.9238H71.6062V81.4512H71.8699V81.7148H72.1336V82.2422H72.3973V83.0332H72.6609V84.0879H72.9246V91.4707H72.6609V93.3164H72.3973V94.1074H72.1336V94.6348H71.8699V95.1621H71.6062V95.4258H71.3426V95.6895H71.0789V95.9531H70.8152V96.2168H70.5516V96.4805H70.2879V96.7441H69.7605V97.0078H69.2332V97.2715H68.4422V97.5352H67.3875V97.7988H30.7371V97.2715H31.0008V96.7441H31.2645V96.2168H31.5281V95.6895H31.7918V95.1621H32.0555V94.6348H32.3191V94.3711H32.5828V93.8438H32.8465V93.3164H33.1102V92.7891H33.3738V92.2617H33.6375V91.7344H33.9012V91.207H34.1648V90.6797H34.4285V90.1523H34.6922V89.625H34.9559V89.3613H35.2195V89.0977H61.8504V86.4609H39.9656V86.1973H38.3836V85.9336H37.5926V85.6699H37.0652V85.4062H36.5379V85.1426H36.0105V84.8789H35.7469V84.6152H35.4832V84.3516H35.2195V84.0879H34.9559V83.5605H34.6922V83.2969H34.4285V82.5059H34.1648V81.7148H33.9012V72.75H34.1648V71.4316H34.4285V70.9043H34.6922V70.377H34.9559V69.8496H35.2195V69.5859H35.4832V69.3223H35.7469V69.0586H36.0105V68.7949H36.2742V68.5312H36.8016V68.2676H37.0652V68.0039H37.5926V67.7402H38.3836V67.4766H39.4383V67.2129H41.5477V66.9492ZM80.4002 66.9141H91.2108V85.8984H108.877V66.9141H119.687V90.1172H119.424V91.1719H119.16V91.9629H118.896V92.4902H118.633V92.7539H118.369V93.0176H118.105V93.2812H117.842V93.5449H117.578V93.8086H117.314V94.0723H117.051V94.3359H116.523V94.5996H115.996V94.8633H115.205V95.127H113.887V95.3906H86.4647V95.127H85.1463V94.8633H84.3553V94.5996H83.5643V94.3359H83.0369V94.0723H82.7733V93.8086H82.5096V93.5449H82.2459V93.2812H81.9823V93.0176H81.7186V92.7539H81.4549V92.4902H81.1912V91.9629H80.9276V91.4355H80.6639V90.6445H80.4002V66.9141ZM128.306 66.9316H140.434V67.1953H142.807V67.459H143.862V67.7227H144.39V67.9863H144.917V68.25H145.444V68.5137H145.708V68.7773H146.235V69.041H146.499V69.3047H146.763V69.832H147.026V70.0957H147.29V70.3594H147.554V70.8867H147.817V71.4141H148.081V71.9414H148.345V72.4688H148.608V72.9961H148.872V73.5234H149.136V74.0508H149.399V74.5781H149.663V75.3691H149.927V75.8965H150.19V76.4238H150.454V76.9512H150.718V77.4785H150.981V78.0059H151.245V78.5332H151.509V79.0605H151.772V79.5879H152.036V80.1152H152.3V80.6426H152.563V81.1699H152.827V81.6973H153.091V82.2246H153.354V82.752H153.618V83.2793H153.882V84.0703H154.145V84.5977H154.409V85.125H154.673V85.6523H154.936V86.1797H155.2V86.707H155.464V87.2344H155.727V87.7617H155.991V88.0254H156.255V66.9316H166.802V97.7812H153.882V97.5176H151.772V97.2539H150.981V96.9902H150.454V96.7266H149.927V96.4629H149.399V96.1992H149.136V95.9355H148.872V95.6719H148.608V95.4082H148.345V95.1445H148.081V94.8809H147.817V94.3535H147.554V93.8262H147.29V93.2988H147.026V92.7715H146.763V92.2441H146.499V91.7168H146.235V91.1895H145.972V90.6621H145.708V90.1348H145.444V89.6074H145.181V89.0801H144.917V88.2891H144.653V87.7617H144.39V87.2344H144.126V86.707H143.862V86.1797H143.599V85.6523H143.335V85.125H143.071V84.5977H142.807V84.0703H142.544V83.2793H142.28V82.752H142.016V82.2246H141.753V81.6973H141.489V81.1699H141.225V80.6426H140.962V80.1152H140.698V79.5879H140.434V79.0605H140.171V78.2695H139.907V77.7422H139.643V77.2148H139.38V76.6875H139.116V97.2539H138.589V97.5176H138.061V97.7812H137.534V98.0449H137.007V98.3086H136.216V98.5723H135.688V98.8359H135.161V99.0996H134.634V99.3633H134.106V99.627H133.315V99.8906H132.788V100.154H132.261V100.418H131.733V100.682H130.942V100.945H130.415V101.209H129.888V101.473H129.36V101.736H128.833V102H128.306V66.9316ZM175.332 66.9316H187.461V67.1953H189.834V67.459H190.889V67.7227H191.416V67.9863H191.943V68.25H192.471V68.5137H192.734V68.7773H193.262V69.041H193.525V69.3047H193.789V69.832H194.053V70.0957H194.316V70.3594H194.58V70.8867H194.844V71.4141H195.107V71.9414H195.371V72.4688H195.635V72.9961H195.898V73.5234H196.162V74.0508H196.426V74.5781H196.689V75.3691H196.953V75.8965H197.217V76.4238H197.48V76.9512H197.744V77.4785H198.008V78.0059H198.271V78.5332H198.535V79.0605H198.799V79.5879H199.062V80.1152H199.326V80.6426H199.59V81.1699H199.853V81.6973H200.117V82.2246H200.381V82.752H200.644V83.2793H200.908V84.0703H201.172V84.5977H201.435V85.125H201.699V85.6523H201.963V86.1797H202.226V86.707H202.49V87.2344H202.754V87.7617H203.018V88.0254H203.281V66.9316H213.828V97.7812H200.908V97.5176H198.799V97.2539H198.008V96.9902H197.48V96.7266H196.953V96.4629H196.426V96.1992H196.162V95.9355H195.898V95.6719H195.635V95.4082H195.371V95.1445H195.107V94.8809H194.844V94.3535H194.58V93.8262H194.316V93.2988H194.053V92.7715H193.789V92.2441H193.525V91.7168H193.262V91.1895H192.998V90.6621H192.734V90.1348H192.471V89.6074H192.207V89.0801H191.943V88.2891H191.68V87.7617H191.416V87.2344H191.152V86.707H190.889V86.1797H190.625V85.6523H190.361V85.125H190.098V84.5977H189.834V84.0703H189.57V83.2793H189.307V82.752H189.043V82.2246H188.779V81.6973H188.516V81.1699H188.252V80.6426H187.988V80.1152H187.725V79.5879H187.461V79.0605H187.197V78.2695H186.934V77.7422H186.67V77.2148H186.406V76.6875H186.143V97.2539H185.615V97.5176H185.088V97.7812H184.56V98.0449H184.033V98.3086H183.242V98.5723H182.715V98.8359H182.187V99.0996H181.66V99.3633H181.133V99.627H180.342V99.8906H179.814V100.154H179.287V100.418H178.76V100.682H177.969V100.945H177.441V101.209H176.914V101.473H176.387V101.736H175.859V102H175.332V66.9316ZM229.214 66.9492H256.899V75.9141H233.169V78.2871H256.899V86.1973H233.169V88.834H256.899V97.7988H232.114V97.5352H229.214V97.2715H227.895V97.0078H227.104V96.7441H226.313V96.4805H225.786V96.2168H225.259V95.9531H224.995V95.6895H224.731V95.4258H224.204V95.1621H223.94V94.8984H223.677V94.3711H223.413V94.1074H223.149V93.5801H222.886V93.3164H222.622V92.5254H222.358V71.959H222.622V71.168H222.886V70.6406H223.149V70.1133H223.413V69.8496H223.677V69.3223H223.94V69.0586H224.204V68.7949H224.731V68.5312H224.995V68.2676H225.522V68.0039H226.05V67.7402H226.577V67.4766H227.632V67.2129H229.214V66.9492ZM278.759 66.9316H289.833V79.3242H305.653V66.9316H316.728V97.7812H305.653V87.2344H289.833V97.2539H289.306V97.5176H288.778V97.7812H288.251V98.0449H287.46V98.3086H286.933V98.5723H286.405V98.8359H285.878V99.0996H285.087V99.3633H284.56V99.627H284.032V99.8906H283.241V100.154H282.714V100.418H282.187V100.682H281.659V100.945H281.132V101.209H280.341V101.473H279.814V101.736H279.286V102H278.759V66.9316ZM333.344 66.9141H355.229V67.1777H356.811V67.4414H357.865V67.7051H358.656V67.9688H359.447V68.2324H359.975V68.4961H360.238V68.7598H360.766V69.0234H361.029V69.2871H361.293V69.5508H361.557V69.8145H361.82V70.0781H362.084V70.3418H362.348V70.8691H362.611V71.1328H362.875V71.6602H363.139V72.4512H363.402V73.5059H363.666V89.0625H363.402V90.1172H363.139V90.6445H362.875V91.1719H362.611V91.6992H362.348V91.9629H362.084V92.4902H361.82V92.7539H361.557V93.0176H361.293V93.2812H361.029V93.5449H360.502V93.8086H360.238V94.0723H359.711V94.3359H359.184V94.5996H358.656V94.8633H357.602V95.127H356.283V95.3906H333.08V95.127H331.234V94.8633H330.18V94.5996H329.389V94.3359H328.861V94.0723H328.334V93.8086H328.07V93.5449H327.543V93.2812H327.279V93.0176H327.016V92.7539H326.752V92.4902H326.488V91.9629H326.225V91.6992H325.961V91.1719H325.697V90.6445H325.434V89.8535H325.17V88.7988H324.906V73.7695H325.17V72.7148H325.434V71.9238H325.697V71.3965H325.961V70.8691H326.225V70.6055H326.488V70.0781H326.752V69.8145H327.016V69.5508H327.279V69.2871H327.543V69.0234H327.807V68.7598H328.334V68.4961H328.861V68.2324H329.125V67.9688H329.916V67.7051H330.707V67.4414H331.762V67.1777H333.344V66.9141ZM337.035 76.4062V76.6699H336.244V76.9336H335.981V77.1973H335.717V85.1074H335.981V85.6348H336.508V85.8984H352.328V85.6348H352.592V85.3711H352.856V77.1973H352.592V76.9336H352.328V76.6699H351.273V76.4062H337.035ZM371.933 66.9316H406.474V75.8965H394.609V98.0449H393.818V98.3086H393.29V98.5723H392.499V98.8359H391.972V99.0996H391.181V99.3633H390.39V99.627H389.862V99.8906H389.071V100.154H388.28V100.418H387.753V100.682H386.962V100.945H386.435V101.209H385.644V101.473H384.853V101.736H384.325V102H383.534V75.8965H371.933V66.9316ZM422.299 66.9492H449.985V75.9141H426.254V78.2871H449.985V86.1973H426.254V88.834H449.985V97.7988H425.199V97.5352H422.299V97.2715H420.981V97.0078H420.19V96.7441H419.399V96.4805H418.871V96.2168H418.344V95.9531H418.08V95.6895H417.817V95.4258H417.289V95.1621H417.026V94.8984H416.762V94.3711H416.498V94.1074H416.235V93.5801H415.971V93.3164H415.707V92.5254H415.444V71.959H415.707V71.168H415.971V70.6406H416.235V70.1133H416.498V69.8496H416.762V69.3223H417.026V69.0586H417.289V68.7949H417.817V68.5312H418.08V68.2676H418.608V68.0039H419.135V67.7402H419.662V67.4766H420.717V67.2129H422.299V66.9492ZM458.954 66.9492H470.029V88.5703H495.605V97.7988H464.755V97.5352H463.437V97.2715H462.646V97.0078H462.118V96.7441H461.591V96.4805H461.327V96.2168H461.064V95.9531H460.8V95.6895H460.536V95.4258H460.273V95.1621H460.009V94.6348H459.745V94.3711H459.482V93.5801H459.218V92.5254H458.954V66.9492Z" fill="url(#paint0_radial_85_3)"/>
<mask id="path-3-outside-1_85_3" maskUnits="userSpaceOnUse" x="179" y="31" width="172" height="22" fill="black">
<rect fill="white" x="179" y="31" width="172" height="22"/>
<path d="M202.65 32.28L198.738 51H193.938L192.162 41.616C191.85 40.152 191.658 37.008 191.634 36.552H191.586C191.562 37.032 191.37 40.128 191.058 41.616L189.354 51H184.386L180.378 32.28H184.722L186.522 42C186.762 43.248 186.93 45.216 186.93 46.536H187.026C187.098 45.264 187.242 43.272 187.458 42.072L189.354 32.28H193.866L195.906 41.976C196.098 42.936 196.266 44.904 196.362 46.416H196.458C196.506 44.904 196.698 43.056 196.842 42.048L198.498 32.28H202.65ZM219.946 44.136C219.946 44.304 219.922 44.496 219.922 44.664L210.61 45.816C210.898 47.184 212.242 48 213.898 48C215.458 48 216.922 47.352 217.786 46.104L219.802 48.552C218.242 50.424 216.586 51.312 213.586 51.312C209.482 51.312 206.77 48.576 206.77 44.304C206.77 40.464 209.146 37.32 213.49 37.32C217.45 37.32 219.946 40.008 219.946 44.136ZM216.01 42.408C215.842 41.328 214.882 40.584 213.466 40.584C211.834 40.584 210.73 41.544 210.562 43.104L216.01 42.408ZM229.451 51H225.155V32.28H229.451V51ZM247.266 49.368C245.946 50.664 244.458 51.312 241.89 51.312C238.074 51.312 234.714 48.912 234.714 44.304C234.714 40.032 237.666 37.32 241.89 37.32C244.242 37.32 245.73 37.896 247.026 38.904L245.706 42.144C244.914 41.16 243.714 40.704 242.49 40.704C240.786 40.704 238.962 41.856 238.962 44.304C238.962 46.8 240.69 47.976 242.586 47.976C243.786 47.976 245.202 47.376 245.946 46.368L247.266 49.368ZM265.386 44.328C265.386 48.552 262.746 51.312 258.378 51.312C254.01 51.312 251.322 48.552 251.322 44.328C251.322 40.08 254.01 37.32 258.378 37.32C262.746 37.32 265.386 40.08 265.386 44.328ZM261.114 44.328C261.114 42.072 260.082 40.68 258.378 40.68C256.674 40.68 255.594 42.072 255.594 44.328C255.594 46.584 256.674 48 258.378 48C260.082 48 261.114 46.608 261.114 44.328ZM289.725 51H285.525V42.792C285.525 41.4 285.069 40.752 283.989 40.752C282.861 40.752 282.285 41.616 282.213 42.648V51H278.037V42.792C278.037 41.424 277.629 40.752 276.549 40.752C275.565 40.752 275.061 41.472 274.773 42.456V51H270.573V37.632H274.389V39.12C274.965 38.04 276.165 37.32 278.181 37.32C279.837 37.32 281.109 38.16 281.637 39.312C282.213 38.04 283.773 37.32 285.693 37.32C288.045 37.32 289.725 39.168 289.725 41.76V51ZM308.075 44.136C308.075 44.304 308.051 44.496 308.051 44.664L298.739 45.816C299.027 47.184 300.371 48 302.027 48C303.587 48 305.051 47.352 305.915 46.104L307.931 48.552C306.371 50.424 304.715 51.312 301.715 51.312C297.611 51.312 294.899 48.576 294.899 44.304C294.899 40.464 297.275 37.32 301.619 37.32C305.579 37.32 308.075 40.008 308.075 44.136ZM304.139 42.408C303.971 41.328 303.011 40.584 301.595 40.584C299.963 40.584 298.859 41.544 298.691 43.104L304.139 42.408ZM332.214 47.856L331.47 51.312C326.742 51.312 325.038 50.352 325.038 46.968V40.872H323.118V37.632H325.23V33.456H329.238V37.632H331.494V40.872H329.238V46.056C329.238 47.808 329.526 47.856 332.214 47.856ZM350.211 44.328C350.211 48.552 347.571 51.312 343.203 51.312C338.835 51.312 336.147 48.552 336.147 44.328C336.147 40.08 338.835 37.32 343.203 37.32C347.571 37.32 350.211 40.08 350.211 44.328ZM345.939 44.328C345.939 42.072 344.907 40.68 343.203 40.68C341.499 40.68 340.419 42.072 340.419 44.328C340.419 46.584 341.499 48 343.203 48C344.907 48 345.939 46.608 345.939 44.328Z"/>
</mask>
<path d="M202.65 32.28L198.738 51H193.938L192.162 41.616C191.85 40.152 191.658 37.008 191.634 36.552H191.586C191.562 37.032 191.37 40.128 191.058 41.616L189.354 51H184.386L180.378 32.28H184.722L186.522 42C186.762 43.248 186.93 45.216 186.93 46.536H187.026C187.098 45.264 187.242 43.272 187.458 42.072L189.354 32.28H193.866L195.906 41.976C196.098 42.936 196.266 44.904 196.362 46.416H196.458C196.506 44.904 196.698 43.056 196.842 42.048L198.498 32.28H202.65ZM219.946 44.136C219.946 44.304 219.922 44.496 219.922 44.664L210.61 45.816C210.898 47.184 212.242 48 213.898 48C215.458 48 216.922 47.352 217.786 46.104L219.802 48.552C218.242 50.424 216.586 51.312 213.586 51.312C209.482 51.312 206.77 48.576 206.77 44.304C206.77 40.464 209.146 37.32 213.49 37.32C217.45 37.32 219.946 40.008 219.946 44.136ZM216.01 42.408C215.842 41.328 214.882 40.584 213.466 40.584C211.834 40.584 210.73 41.544 210.562 43.104L216.01 42.408ZM229.451 51H225.155V32.28H229.451V51ZM247.266 49.368C245.946 50.664 244.458 51.312 241.89 51.312C238.074 51.312 234.714 48.912 234.714 44.304C234.714 40.032 237.666 37.32 241.89 37.32C244.242 37.32 245.73 37.896 247.026 38.904L245.706 42.144C244.914 41.16 243.714 40.704 242.49 40.704C240.786 40.704 238.962 41.856 238.962 44.304C238.962 46.8 240.69 47.976 242.586 47.976C243.786 47.976 245.202 47.376 245.946 46.368L247.266 49.368ZM265.386 44.328C265.386 48.552 262.746 51.312 258.378 51.312C254.01 51.312 251.322 48.552 251.322 44.328C251.322 40.08 254.01 37.32 258.378 37.32C262.746 37.32 265.386 40.08 265.386 44.328ZM261.114 44.328C261.114 42.072 260.082 40.68 258.378 40.68C256.674 40.68 255.594 42.072 255.594 44.328C255.594 46.584 256.674 48 258.378 48C260.082 48 261.114 46.608 261.114 44.328ZM289.725 51H285.525V42.792C285.525 41.4 285.069 40.752 283.989 40.752C282.861 40.752 282.285 41.616 282.213 42.648V51H278.037V42.792C278.037 41.424 277.629 40.752 276.549 40.752C275.565 40.752 275.061 41.472 274.773 42.456V51H270.573V37.632H274.389V39.12C274.965 38.04 276.165 37.32 278.181 37.32C279.837 37.32 281.109 38.16 281.637 39.312C282.213 38.04 283.773 37.32 285.693 37.32C288.045 37.32 289.725 39.168 289.725 41.76V51ZM308.075 44.136C308.075 44.304 308.051 44.496 308.051 44.664L298.739 45.816C299.027 47.184 300.371 48 302.027 48C303.587 48 305.051 47.352 305.915 46.104L307.931 48.552C306.371 50.424 304.715 51.312 301.715 51.312C297.611 51.312 294.899 48.576 294.899 44.304C294.899 40.464 297.275 37.32 301.619 37.32C305.579 37.32 308.075 40.008 308.075 44.136ZM304.139 42.408C303.971 41.328 303.011 40.584 301.595 40.584C299.963 40.584 298.859 41.544 298.691 43.104L304.139 42.408ZM332.214 47.856L331.47 51.312C326.742 51.312 325.038 50.352 325.038 46.968V40.872H323.118V37.632H325.23V33.456H329.238V37.632H331.494V40.872H329.238V46.056C329.238 47.808 329.526 47.856 332.214 47.856ZM350.211 44.328C350.211 48.552 347.571 51.312 343.203 51.312C338.835 51.312 336.147 48.552 336.147 44.328C336.147 40.08 338.835 37.32 343.203 37.32C347.571 37.32 350.211 40.08 350.211 44.328ZM345.939 44.328C345.939 42.072 344.907 40.68 343.203 40.68C341.499 40.68 340.419 42.072 340.419 44.328C340.419 46.584 341.499 48 343.203 48C344.907 48 345.939 46.608 345.939 44.328Z" fill="url(#paint1_linear_85_3)"/>
<path d="M202.65 32.28L203.335 32.4232C203.378 32.2169 203.326 32.0021 203.193 31.8385C203.06 31.675 202.861 31.58 202.65 31.58V32.28ZM198.738 51V51.7C199.069 51.7 199.355 51.4676 199.423 51.1432L198.738 51ZM193.938 51L193.25 51.1302C193.313 51.4607 193.602 51.7 193.938 51.7V51ZM192.162 41.616L192.85 41.4858C192.849 41.4806 192.848 41.4753 192.847 41.4701L192.162 41.616ZM191.634 36.552L192.333 36.5152C192.313 36.1434 192.006 35.852 191.634 35.852V36.552ZM191.586 36.552V35.852C191.213 35.852 190.905 36.1445 190.887 36.517L191.586 36.552ZM191.058 41.616L190.373 41.4723C190.372 41.4785 190.37 41.4847 190.369 41.4909L191.058 41.616ZM189.354 51V51.7C189.692 51.7 189.982 51.458 190.043 51.1251L189.354 51ZM184.386 51L183.701 51.1466C183.771 51.4694 184.056 51.7 184.386 51.7V51ZM180.378 32.28V31.58C180.167 31.58 179.966 31.6755 179.834 31.8399C179.701 32.0042 179.649 32.2199 179.693 32.4265L180.378 32.28ZM184.722 32.28L185.41 32.1525C185.349 31.8207 185.059 31.58 184.722 31.58V32.28ZM186.522 42L185.834 42.1275L185.835 42.1322L186.522 42ZM186.93 46.536H186.23C186.23 46.9226 186.543 47.236 186.93 47.236V46.536ZM187.026 46.536V47.236C187.397 47.236 187.704 46.9462 187.725 46.5756L187.026 46.536ZM187.458 42.072L186.771 41.9389L186.769 41.948L187.458 42.072ZM189.354 32.28V31.58C189.019 31.58 188.73 31.8178 188.667 32.1469L189.354 32.28ZM193.866 32.28L194.551 32.1359C194.483 31.8119 194.197 31.58 193.866 31.58V32.28ZM195.906 41.976L196.592 41.8387L196.591 41.8319L195.906 41.976ZM196.362 46.416L195.663 46.4604C195.687 46.829 195.993 47.116 196.362 47.116V46.416ZM196.458 46.416V47.116C196.836 47.116 197.146 46.816 197.158 46.4382L196.458 46.416ZM196.842 42.048L196.152 41.931C196.151 41.937 196.15 41.943 196.149 41.949L196.842 42.048ZM198.498 32.28V31.58C198.156 31.58 197.865 31.8263 197.808 32.163L198.498 32.28ZM201.965 32.1368L198.053 50.8568L199.423 51.1432L203.335 32.4232L201.965 32.1368ZM198.738 50.3H193.938V51.7H198.738V50.3ZM194.626 50.8698L192.85 41.4858L191.474 41.7462L193.25 51.1302L194.626 50.8698ZM192.847 41.4701C192.548 40.071 192.358 36.9868 192.333 36.5152L190.935 36.5888C190.958 37.0292 191.151 40.233 191.477 41.7619L192.847 41.4701ZM191.634 35.852H191.586V37.252H191.634V35.852ZM190.887 36.517C190.862 37.0079 190.672 40.0476 190.373 41.4723L191.743 41.7596C192.068 40.2084 192.262 37.0561 192.285 36.587L190.887 36.517ZM190.369 41.4909L188.665 50.8749L190.043 51.1251L191.747 41.7411L190.369 41.4909ZM189.354 50.3H184.386V51.7H189.354V50.3ZM185.07 50.8534L181.062 32.1334L179.693 32.4265L183.701 51.1466L185.07 50.8534ZM180.378 32.98H184.722V31.58H180.378V32.98ZM184.034 32.4075L185.834 42.1275L187.21 41.8725L185.41 32.1525L184.034 32.4075ZM185.835 42.1322C186.065 43.3307 186.23 45.2539 186.23 46.536H187.63C187.63 45.1781 187.459 43.1653 187.209 41.8678L185.835 42.1322ZM186.93 47.236H187.026V45.836H186.93V47.236ZM187.725 46.5756C187.797 45.2993 187.939 43.3481 188.147 42.196L186.769 41.948C186.544 43.1959 186.399 45.2287 186.327 46.4964L187.725 46.5756ZM188.145 42.2051L190.041 32.4131L188.667 32.1469L186.771 41.9389L188.145 42.2051ZM189.354 32.98H193.866V31.58H189.354V32.98ZM193.181 32.4241L195.221 42.1201L196.591 41.8319L194.551 32.1359L193.181 32.4241ZM195.22 42.1133C195.401 43.0196 195.567 44.9407 195.663 46.4604L197.061 46.3716C196.965 44.8673 196.795 42.8524 196.592 41.8387L195.22 42.1133ZM196.362 47.116H196.458V45.716H196.362V47.116ZM197.158 46.4382C197.205 44.9569 197.394 43.135 197.535 42.147L196.149 41.949C196.002 42.977 195.807 44.8511 195.758 46.3938L197.158 46.4382ZM197.532 42.165L199.188 32.397L197.808 32.163L196.152 41.931L197.532 42.165ZM198.498 32.98H202.65V31.58H198.498V32.98ZM219.922 44.664L220.008 45.3587C220.358 45.3153 220.622 45.0174 220.622 44.664H219.922ZM210.61 45.816L210.524 45.1213C210.329 45.1453 210.154 45.2498 210.04 45.4092C209.926 45.5686 209.884 45.7685 209.925 45.9602L210.61 45.816ZM217.786 46.104L218.326 45.659C218.187 45.4896 217.976 45.3955 217.756 45.4046C217.537 45.4138 217.335 45.5252 217.21 45.7056L217.786 46.104ZM219.802 48.552L220.339 49.0001C220.555 48.7417 220.556 48.3667 220.342 48.107L219.802 48.552ZM216.01 42.408L216.098 43.1024C216.286 43.0784 216.456 42.9797 216.569 42.8287C216.683 42.6776 216.73 42.4871 216.701 42.3004L216.01 42.408ZM210.562 43.104L209.866 43.029C209.843 43.2421 209.919 43.4539 210.072 43.6038C210.225 43.7538 210.438 43.8255 210.65 43.7984L210.562 43.104ZM219.246 44.136C219.246 44.1924 219.242 44.2583 219.235 44.3534C219.23 44.4383 219.222 44.5524 219.222 44.664H220.622C220.622 44.6076 220.626 44.5417 220.632 44.4466C220.638 44.3617 220.646 44.2476 220.646 44.136H219.246ZM219.836 43.9693L210.524 45.1213L210.696 46.5107L220.008 45.3587L219.836 43.9693ZM209.925 45.9602C210.306 47.7694 212.047 48.7 213.898 48.7V47.3C212.436 47.3 211.49 46.5986 211.295 45.6718L209.925 45.9602ZM213.898 48.7C215.645 48.7 217.344 47.9717 218.361 46.5024L217.21 45.7056C216.499 46.7323 215.27 47.3 213.898 47.3V48.7ZM217.245 46.549L219.261 48.997L220.342 48.107L218.326 45.659L217.245 46.549ZM219.264 48.1039C218.528 48.9864 217.803 49.5987 216.939 49.9989C216.073 50.4002 215.017 50.612 213.586 50.612V52.012C215.154 52.012 216.426 51.7798 217.528 51.2691C218.633 50.7573 219.515 49.9896 220.339 49.0001L219.264 48.1039ZM213.586 50.612C211.693 50.612 210.18 49.9847 209.139 48.9206C208.097 47.8552 207.47 46.29 207.47 44.304H206.07C206.07 46.59 206.798 48.5288 208.138 49.8994C209.48 51.2713 211.374 52.012 213.586 52.012V50.612ZM207.47 44.304C207.47 42.5246 208.02 40.9552 209.021 39.8397C210.014 38.7344 211.498 38.02 213.49 38.02V36.62C211.137 36.62 209.261 37.4776 207.98 38.9043C206.708 40.3208 206.07 42.2434 206.07 44.304H207.47ZM213.49 38.02C215.305 38.02 216.725 38.6317 217.693 39.66C218.666 40.6928 219.246 42.2123 219.246 44.136H220.646C220.646 41.9317 219.977 40.0432 218.712 38.7C217.443 37.3523 215.634 36.62 213.49 36.62V38.02ZM216.701 42.3004C216.467 40.7916 215.13 39.884 213.466 39.884V41.284C214.634 41.284 215.217 41.8644 215.318 42.5156L216.701 42.3004ZM213.466 39.884C212.511 39.884 211.655 40.1666 211.006 40.7304C210.354 41.2961 209.966 42.0972 209.866 43.029L211.258 43.179C211.325 42.5508 211.573 42.0919 211.924 41.7876C212.276 41.4814 212.788 41.284 213.466 41.284V39.884ZM210.65 43.7984L216.098 43.1024L215.921 41.7136L210.473 42.4096L210.65 43.7984ZM229.451 51V51.7C229.837 51.7 230.151 51.3866 230.151 51H229.451ZM225.155 51H224.455C224.455 51.3866 224.768 51.7 225.155 51.7V51ZM225.155 32.28V31.58C224.768 31.58 224.455 31.8934 224.455 32.28H225.155ZM229.451 32.28H230.151C230.151 31.8934 229.837 31.58 229.451 31.58V32.28ZM229.451 50.3H225.155V51.7H229.451V50.3ZM225.855 51V32.28H224.455V51H225.855ZM225.155 32.98H229.451V31.58H225.155V32.98ZM228.751 32.28V51H230.151V32.28H228.751ZM247.266 49.368L247.756 49.8675C247.964 49.6636 248.024 49.3525 247.906 49.0861L247.266 49.368ZM247.026 38.904L247.674 39.1681C247.792 38.8777 247.703 38.544 247.455 38.3515L247.026 38.904ZM245.706 42.144L245.16 42.5829C245.316 42.776 245.562 42.8725 245.807 42.8366C246.052 42.8007 246.26 42.6377 246.354 42.4081L245.706 42.144ZM245.946 46.368L246.586 46.0861C246.486 45.8575 246.271 45.6999 246.023 45.6723C245.775 45.6447 245.531 45.7514 245.383 45.9523L245.946 46.368ZM246.775 48.8685C246.172 49.4612 245.55 49.8874 244.798 50.1711C244.041 50.4571 243.116 50.612 241.89 50.612V52.012C243.231 52.012 244.334 51.8429 245.293 51.4809C246.258 51.1166 247.04 50.5708 247.756 49.8675L246.775 48.8685ZM241.89 50.612C240.124 50.612 238.505 50.0568 237.337 49.0139C236.18 47.9811 235.414 46.4248 235.414 44.304H234.014C234.014 46.7912 234.927 48.7389 236.404 50.0581C237.87 51.3672 239.84 52.012 241.89 52.012V50.612ZM235.414 44.304C235.414 42.3357 236.09 40.7803 237.202 39.7156C238.317 38.6476 239.928 38.02 241.89 38.02V36.62C239.627 36.62 237.65 37.3484 236.234 38.7044C234.814 40.0637 234.014 42.0003 234.014 44.304H235.414ZM241.89 38.02C244.102 38.02 245.434 38.5532 246.596 39.4565L247.455 38.3515C246.025 37.2388 244.382 36.62 241.89 36.62V38.02ZM246.377 38.6399L245.057 41.8799L246.354 42.4081L247.674 39.1681L246.377 38.6399ZM246.251 41.7051C245.301 40.5244 243.881 40.004 242.49 40.004V41.404C243.546 41.404 244.527 41.7956 245.16 42.5829L246.251 41.7051ZM242.49 40.004C241.488 40.004 240.434 40.3414 239.622 41.0626C238.795 41.7964 238.262 42.8907 238.262 44.304H239.662C239.662 43.2693 240.04 42.5636 240.551 42.1094C241.077 41.6426 241.788 41.404 242.49 41.404V40.004ZM238.262 44.304C238.262 45.7249 238.76 46.8403 239.593 47.5948C240.414 48.3386 241.498 48.676 242.586 48.676V47.276C241.777 47.276 241.05 47.0254 240.533 46.5572C240.028 46.0997 239.662 45.3791 239.662 44.304H238.262ZM242.586 48.676C243.971 48.676 245.612 47.9985 246.509 46.7837L245.383 45.9523C244.791 46.7535 243.601 47.276 242.586 47.276V48.676ZM245.305 46.6499L246.625 49.6499L247.906 49.0861L246.586 46.0861L245.305 46.6499ZM264.686 44.328C264.686 46.293 264.075 47.849 263.023 48.9115C261.972 49.9728 260.412 50.612 258.378 50.612V52.012C260.713 52.012 262.657 51.2712 264.018 49.8965C265.378 48.523 266.086 46.587 266.086 44.328H264.686ZM258.378 50.612C256.344 50.612 254.771 49.9724 253.707 48.909C252.644 47.8452 252.022 46.2895 252.022 44.328H250.622C250.622 46.5905 251.345 48.5268 252.717 49.899C254.09 51.2716 256.045 52.012 258.378 52.012V50.612ZM252.022 44.328C252.022 42.3535 252.644 40.7917 253.708 39.7254C254.771 38.6595 256.344 38.02 258.378 38.02V36.62C256.045 36.62 254.09 37.3605 252.717 38.7366C251.345 40.1123 250.622 42.0545 250.622 44.328H252.022ZM258.378 38.02C260.412 38.02 261.972 38.6592 263.022 39.7229C264.074 40.788 264.686 42.3499 264.686 44.328H266.086C266.086 42.0581 265.378 40.116 264.018 38.7391C262.657 37.3608 260.713 36.62 258.378 36.62V38.02ZM261.814 44.328C261.814 43.1042 261.536 42.0277 260.946 41.2389C260.339 40.4266 259.444 39.98 258.378 39.98V41.38C259.017 41.38 259.49 41.6294 259.825 42.0771C260.177 42.5483 260.414 43.2958 260.414 44.328H261.814ZM258.378 39.98C257.315 39.98 256.411 40.4246 255.792 41.2321C255.188 42.0198 254.894 43.0976 254.894 44.328H256.294C256.294 43.3024 256.541 42.5562 256.903 42.0839C257.25 41.6314 257.738 41.38 258.378 41.38V39.98ZM254.894 44.328C254.894 45.5584 255.188 46.6407 255.79 47.4334C256.407 48.2459 257.31 48.7 258.378 48.7V47.3C257.742 47.3 257.254 47.0461 256.905 46.5866C256.541 46.1073 256.294 45.3536 256.294 44.328H254.894ZM258.378 48.7C259.445 48.7 260.34 48.2531 260.947 47.4369C261.536 46.6447 261.814 45.5624 261.814 44.328H260.414C260.414 45.3736 260.176 46.1273 259.824 46.6011C259.489 47.0509 259.016 47.3 258.378 47.3V48.7ZM289.725 51V51.7C290.112 51.7 290.425 51.3866 290.425 51H289.725ZM285.525 51H284.825C284.825 51.3866 285.138 51.7 285.525 51.7V51ZM282.213 42.648L281.515 42.5993C281.514 42.6155 281.513 42.6317 281.513 42.648H282.213ZM282.213 51V51.7C282.6 51.7 282.913 51.3866 282.913 51H282.213ZM278.037 51H277.337C277.337 51.3866 277.65 51.7 278.037 51.7V51ZM274.773 42.456L274.101 42.2594C274.083 42.3232 274.073 42.3895 274.073 42.456H274.773ZM274.773 51V51.7C275.16 51.7 275.473 51.3866 275.473 51H274.773ZM270.573 51H269.873C269.873 51.3866 270.186 51.7 270.573 51.7V51ZM270.573 37.632V36.932C270.186 36.932 269.873 37.2454 269.873 37.632H270.573ZM274.389 37.632H275.089C275.089 37.2454 274.776 36.932 274.389 36.932V37.632ZM274.389 39.12H273.689C273.689 39.4412 273.908 39.7212 274.219 39.7991C274.531 39.877 274.856 39.7328 275.007 39.4494L274.389 39.12ZM281.637 39.312L281.001 39.6037C281.115 39.853 281.364 40.0126 281.639 40.012C281.913 40.0114 282.162 39.8506 282.275 39.6008L281.637 39.312ZM289.725 50.3H285.525V51.7H289.725V50.3ZM286.225 51V42.792H284.825V51H286.225ZM286.225 42.792C286.225 42.0469 286.108 41.3514 285.724 40.8332C285.305 40.2676 284.678 40.052 283.989 40.052V41.452C284.38 41.452 284.521 41.5604 284.6 41.6668C284.714 41.8206 284.825 42.1451 284.825 42.792H286.225ZM283.989 40.052C283.226 40.052 282.603 40.3532 282.172 40.859C281.757 41.3465 281.558 41.9764 281.515 42.5993L282.911 42.6967C282.94 42.2876 283.065 41.9695 283.238 41.767C283.395 41.5828 283.624 41.452 283.989 41.452V40.052ZM281.513 42.648V51H282.913V42.648H281.513ZM282.213 50.3H278.037V51.7H282.213V50.3ZM278.737 51V42.792H277.337V51H278.737ZM278.737 42.792C278.737 42.0681 278.635 41.3777 278.272 40.8579C277.868 40.2808 277.248 40.052 276.549 40.052V41.452C276.93 41.452 277.054 41.5592 277.124 41.6601C277.235 41.8183 277.337 42.1478 277.337 42.792H278.737ZM276.549 40.052C275.861 40.052 275.305 40.314 274.89 40.7554C274.498 41.1729 274.26 41.7185 274.101 42.2594L275.445 42.6526C275.575 42.2095 275.733 41.9031 275.91 41.7146C276.065 41.55 276.253 41.452 276.549 41.452V40.052ZM274.073 42.456V51H275.473V42.456H274.073ZM274.773 50.3H270.573V51.7H274.773V50.3ZM271.273 51V37.632H269.873V51H271.273ZM270.573 38.332H274.389V36.932H270.573V38.332ZM273.689 37.632V39.12H275.089V37.632H273.689ZM275.007 39.4494C275.426 38.6632 276.339 38.02 278.181 38.02V36.62C275.991 36.62 274.504 37.4168 273.771 38.7906L275.007 39.4494ZM278.181 38.02C279.598 38.02 280.601 38.7308 281.001 39.6037L282.273 39.0203C281.617 37.5892 280.076 36.62 278.181 36.62V38.02ZM282.275 39.6008C282.687 38.6913 283.899 38.02 285.693 38.02V36.62C283.647 36.62 281.74 37.3887 280.999 39.0232L282.275 39.6008ZM285.693 38.02C287.597 38.02 289.025 39.4898 289.025 41.76H290.425C290.425 38.8462 288.493 36.62 285.693 36.62V38.02ZM289.025 41.76V51H290.425V41.76H289.025ZM308.051 44.664L308.137 45.3587C308.488 45.3153 308.751 45.0174 308.751 44.664H308.051ZM298.739 45.816L298.653 45.1213C298.459 45.1453 298.284 45.2498 298.17 45.4092C298.056 45.5686 298.014 45.7685 298.054 45.9602L298.739 45.816ZM305.915 46.104L306.456 45.659C306.316 45.4896 306.105 45.3955 305.886 45.4046C305.667 45.4138 305.465 45.5252 305.34 45.7056L305.915 46.104ZM307.931 48.552L308.469 49.0001C308.684 48.7417 308.686 48.3667 308.472 48.107L307.931 48.552ZM304.139 42.408L304.228 43.1024C304.415 43.0784 304.585 42.9797 304.699 42.8287C304.812 42.6776 304.86 42.4871 304.831 42.3004L304.139 42.408ZM298.691 43.104L297.995 43.029C297.972 43.2421 298.048 43.4539 298.201 43.6038C298.354 43.7538 298.568 43.8255 298.78 43.7984L298.691 43.104ZM307.375 44.136C307.375 44.1924 307.371 44.2583 307.365 44.3534C307.359 44.4383 307.351 44.5524 307.351 44.664H308.751C308.751 44.6076 308.755 44.5417 308.762 44.4466C308.767 44.3617 308.775 44.2476 308.775 44.136H307.375ZM307.965 43.9693L298.653 45.1213L298.825 46.5107L308.137 45.3587L307.965 43.9693ZM298.054 45.9602C298.435 47.7694 300.177 48.7 302.027 48.7V47.3C300.566 47.3 299.619 46.5986 299.424 45.6718L298.054 45.9602ZM302.027 48.7C303.775 48.7 305.474 47.9717 306.491 46.5024L305.34 45.7056C304.629 46.7323 303.4 47.3 302.027 47.3V48.7ZM305.375 46.549L307.391 48.997L308.472 48.107L306.456 45.659L305.375 46.549ZM307.394 48.1039C306.658 48.9864 305.932 49.5987 305.069 49.9989C304.203 50.4002 303.147 50.612 301.715 50.612V52.012C303.284 52.012 304.556 51.7798 305.658 51.2691C306.762 50.7573 307.645 49.9896 308.469 49.0001L307.394 48.1039ZM301.715 50.612C299.823 50.612 298.309 49.9847 297.269 48.9206C296.227 47.8552 295.599 46.29 295.599 44.304H294.199C294.199 46.59 294.928 48.5288 296.268 49.8994C297.609 51.2713 299.504 52.012 301.715 52.012V50.612ZM295.599 44.304C295.599 42.5246 296.149 40.9552 297.151 39.8397C298.144 38.7344 299.628 38.02 301.619 38.02V36.62C299.267 36.62 297.391 37.4776 296.11 38.9043C294.837 40.3208 294.199 42.2434 294.199 44.304H295.599ZM301.619 38.02C303.435 38.02 304.854 38.6317 305.823 39.66C306.796 40.6928 307.375 42.2123 307.375 44.136H308.775C308.775 41.9317 308.107 40.0432 306.842 38.7C305.572 37.3523 303.764 36.62 301.619 36.62V38.02ZM304.831 42.3004C304.596 40.7916 303.259 39.884 301.595 39.884V41.284C302.763 41.284 303.346 41.8644 303.448 42.5156L304.831 42.3004ZM301.595 39.884C300.641 39.884 299.785 40.1666 299.135 40.7304C298.484 41.2961 298.096 42.0972 297.995 43.029L299.387 43.179C299.455 42.5508 299.703 42.0919 300.053 41.7876C300.406 41.4814 300.918 41.284 301.595 41.284V39.884ZM298.78 43.7984L304.228 43.1024L304.051 41.7136L298.603 42.4096L298.78 43.7984ZM332.214 47.856L332.898 48.0033C332.943 47.7965 332.891 47.5807 332.758 47.4162C332.626 47.2516 332.425 47.156 332.214 47.156V47.856ZM331.47 51.312V52.012C331.8 52.012 332.085 51.7818 332.154 51.4593L331.47 51.312ZM325.038 40.872H325.738C325.738 40.4854 325.424 40.172 325.038 40.172V40.872ZM323.118 40.872H322.418C322.418 41.2586 322.731 41.572 323.118 41.572V40.872ZM323.118 37.632V36.932C322.731 36.932 322.418 37.2454 322.418 37.632H323.118ZM325.23 37.632V38.332C325.616 38.332 325.93 38.0186 325.93 37.632H325.23ZM325.23 33.456V32.756C324.843 32.756 324.53 33.0694 324.53 33.456H325.23ZM329.238 33.456H329.938C329.938 33.0694 329.624 32.756 329.238 32.756V33.456ZM329.238 37.632H328.538C328.538 38.0186 328.851 38.332 329.238 38.332V37.632ZM331.494 37.632H332.194C332.194 37.2454 331.88 36.932 331.494 36.932V37.632ZM331.494 40.872V41.572C331.88 41.572 332.194 41.2586 332.194 40.872H331.494ZM329.238 40.872V40.172C328.851 40.172 328.538 40.4854 328.538 40.872H329.238ZM331.53 47.7087L330.786 51.1647L332.154 51.4593L332.898 48.0033L331.53 47.7087ZM331.47 50.612C329.105 50.612 327.69 50.3615 326.863 49.8226C326.129 49.3437 325.738 48.5454 325.738 46.968H324.338C324.338 48.7746 324.799 50.1483 326.099 50.9954C327.306 51.7825 329.107 52.012 331.47 52.012V50.612ZM325.738 46.968V40.872H324.338V46.968H325.738ZM325.038 40.172H323.118V41.572H325.038V40.172ZM323.818 40.872V37.632H322.418V40.872H323.818ZM323.118 38.332H325.23V36.932H323.118V38.332ZM325.93 37.632V33.456H324.53V37.632H325.93ZM325.23 34.156H329.238V32.756H325.23V34.156ZM328.538 33.456V37.632H329.938V33.456H328.538ZM329.238 38.332H331.494V36.932H329.238V38.332ZM330.794 37.632V40.872H332.194V37.632H330.794ZM331.494 40.172H329.238V41.572H331.494V40.172ZM328.538 40.872V46.056H329.938V40.872H328.538ZM328.538 46.056C328.538 46.4922 328.553 46.91 328.65 47.262C328.759 47.6576 328.978 47.9986 329.373 48.2221C329.717 48.417 330.135 48.4855 330.56 48.519C330.998 48.5534 331.549 48.556 332.214 48.556V47.156C331.535 47.156 331.042 47.1526 330.67 47.1233C330.285 47.093 330.127 47.04 330.063 47.0039C330.05 46.9964 330.029 46.9969 330 46.8907C329.959 46.741 329.938 46.4958 329.938 46.056H328.538ZM349.511 44.328C349.511 46.293 348.9 47.849 347.848 48.9115C346.797 49.9728 345.237 50.612 343.203 50.612V52.012C345.538 52.012 347.482 51.2712 348.843 49.8965C350.203 48.523 350.911 46.587 350.911 44.328H349.511ZM343.203 50.612C341.169 50.612 339.596 49.9724 338.532 48.909C337.469 47.8452 336.847 46.2895 336.847 44.328H335.447C335.447 46.5905 336.17 48.5268 337.542 49.899C338.915 51.2716 340.87 52.012 343.203 52.012V50.612ZM336.847 44.328C336.847 42.3535 337.469 40.7917 338.533 39.7254C339.596 38.6595 341.169 38.02 343.203 38.02V36.62C340.87 36.62 338.915 37.3605 337.542 38.7366C336.17 40.1123 335.447 42.0545 335.447 44.328H336.847ZM343.203 38.02C345.237 38.02 346.797 38.6592 347.847 39.7229C348.899 40.788 349.511 42.3499 349.511 44.328H350.911C350.911 42.0581 350.203 40.116 348.843 38.7391C347.482 37.3608 345.538 36.62 343.203 36.62V38.02ZM346.639 44.328C346.639 43.1042 346.361 42.0277 345.771 41.2389C345.164 40.4266 344.269 39.98 343.203 39.98V41.38C343.842 41.38 344.315 41.6294 344.65 42.0771C345.002 42.5483 345.239 43.2958 345.239 44.328H346.639ZM343.203 39.98C342.14 39.98 341.236 40.4246 340.617 41.2321C340.013 42.0198 339.719 43.0976 339.719 44.328H341.119C341.119 43.3024 341.366 42.5562 341.728 42.0839C342.075 41.6314 342.563 41.38 343.203 41.38V39.98ZM339.719 44.328C339.719 45.5584 340.013 46.6407 340.615 47.4334C341.232 48.2459 342.135 48.7 343.203 48.7V47.3C342.567 47.3 342.079 47.0461 341.73 46.5866C341.366 46.1073 341.119 45.3536 341.119 44.328H339.719ZM343.203 48.7C344.27 48.7 345.165 48.2531 345.772 47.4369C346.361 46.6447 346.639 45.5624 346.639 44.328H345.239C345.239 45.3736 345.001 46.1273 344.649 46.6011C344.314 47.0509 343.841 47.3 343.203 47.3V48.7Z" fill="#B3B3B3" mask="url(#path-3-outside-1_85_3)"/>
<defs>
<filter id="filter0_d_85_3" x="0" y="-15" width="532" height="172" filterUnits="userSpaceOnUse" color-interpolation-filters="sRGB">
<feFlood flood-opacity="0" result="BackgroundImageFix"/>
<feColorMatrix in="SourceAlpha" type="matrix" values="0 0 0 0 0 0 0 0 0 0 0 0 0 0 0 0 0 0 127 0" result="hardAlpha"/>
<feMorphology radius="30" operator="dilate" in="SourceAlpha" result="effect1_dropShadow_85_3"/>
<feOffset/>
<feGaussianBlur stdDeviation="15"/>
<feComposite in2="hardAlpha" operator="out"/>
<feColorMatrix type="matrix" values="0 0 0 0 1 0 0 0 0 1 0 0 0 0 1 0 0 0 1 0"/>
<feBlend mode="normal" in2="BackgroundImageFix" result="effect1_dropShadow_85_3"/>
<feBlend mode="normal" in="SourceGraphic" in2="effect1_dropShadow_85_3" result="shape"/>
</filter>
<radialGradient id="paint0_radial_85_3" cx="0" cy="0" r="1" gradientUnits="userSpaceOnUse" gradientTransform="translate(266 100.5) rotate(90) scale(43 1019.47)">
<stop stop-color="#FFE660"/>
<stop offset="0.9375" stop-color="#FF9211"/>
</radialGradient>
<linearGradient id="paint1_linear_85_3" x1="265.5" y1="27" x2="265.5" y2="62.5" gradientUnits="userSpaceOnUse">
<stop stop-color="#D9D9D9"/>
<stop offset="1" stop-color="#8D8D8D"/>
</linearGradient>
</defs>
</svg>
